<?xml version="1.0" encoding="UTF-8"?>
<svg width="580px" height="388px" viewBox="0 0 580 388" version="1.1" xmlns="http://www.w3.org/2000/svg" xmlns:xlink="http://www.w3.org/1999/xlink">
    <title>homepage_illustration</title>
    <defs>
        <polygon id="path-1" points="0 0 580 0 580 388 0 388"></polygon>
    </defs>
    <g id="Design" stroke="none" stroke-width="1" fill="none" fill-rule="evenodd">
        <g id="home-old-+-new-Matt" transform="translate(-211.000000, -3918.000000)">
            <g id="homepage_illustration" transform="translate(211.000000, 3918.000000)">
                <path d="M548.9126,220.29719 L509.971207,220.29719 L492.241372,221 L480.589953,216.980378 L478,208.33581 L481.982642,200.795334 L489.752502,197.981825 L503.796202,200.997108 L521.389014,194.261464 L535.268736,185.415121 C535.268736,185.415121 548.315091,182.903141 548.9126,183.002894 C549.510108,183.104915 565.346334,190.54337 565.346334,190.54337 L572.516439,201.39839 L577,212.758981 L574.308965,217.281906 L565.845007,220.197436 L548.9126,220.29719 Z" id="Fill-1" fill="#FFFFFF"></path>
                <path d="M344.686775,160 L397.820669,157.270032 L407.903882,155.347423 L411,150.749582 L409.513863,144.62825 L405.307646,137.761137 L397.320786,133.101718 L391.130802,130.77543 L384.940817,130.77543 L377.100319,130.77543 L370.165014,130.77543 L365.571501,127.742132 C365.571501,127.742132 363.376071,123.696214 363.175668,123.392884 C362.977516,123.089555 361.579197,120.662916 361.279718,119.752927 C360.980239,118.842938 359.581919,116.31595 359.581919,116.31595 L354.389447,115 L350.397143,115.70929 L347.402353,118.135928 L344,119.652577 L344.686775,160 Z" id="Fill-3" fill="#FFFFFF"></path>
                <polygon id="Fill-5" fill="#FFFFFF" points="185.544407 61.5954732 93.4530101 63 73.5764951 62.2977366 60.5684482 58.7406694 52 45.3519143 57.6894496 29.9364315 68.4285714 24.5607994 78.662726 25.8784012 95.3769124 31.1533831 107.838864 29.0237178 117.462945 21.2141825 131.444367 9.042379 140.563481 6 150.288099 7.34733927 159.103318 21.5184204 169.840155 30.4442572 185.544407 31.9654467 195.979634 33.9921743 209.250447 42.9180111 213 53.9735131 209.961057 59.1455574 198.410789 61.5954732"></polygon>
                <polygon id="Fill-7" fill="#FFFFFF" points="84.6283732 209.68561 16.3680303 211 7.0882428 207.088503 1 196.557551 4.09476298 185.309454 11.9768429 179.687667 19.7621412 178 31.3376801 185.309454 42.8141866 191.340714 52.6949208 187.931446 68.1619834 180.608418 82.9650788 182.513265 91.1149964 188.93364 96.3997262 195.354014 98 202.475698 97.2032392 207.088503"></polygon>
                <g id="Group-11">
                    <mask id="mask-2" fill="white">
                        <use xlink:href="#path-1"></use>
                    </mask>
                    <g id="Clip-10"></g>
                    <path d="M85.85832,278.155454 C87.0302116,274.178737 86.5737189,270.419923 84.9952991,266.808646 C83.4259636,263.220068 82.4879961,259.586093 83.0943819,255.634344 C83.2579016,254.57888 83.2919682,253.412195 82.0564856,252.672235 C81.9860813,254.45631 82.190481,256.204068 82.2631564,257.958636 C82.5129783,263.905552 82.7287335,269.854739 82.9331332,275.803925 C83.0148931,278.144105 83.1125507,278.257596 85.85832,278.155454 L85.85832,278.155454 Z M306.805308,337.27734 C306.62362,337.347704 306.441931,337.420338 306.260243,337.492972 C306.260243,338.695975 306.271598,339.898977 306.257971,341.099709 C306.21482,345.494072 306.192109,349.897514 302.860394,353.383951 C302.819514,353.424808 302.849039,353.531489 302.828599,353.908278 C307.01425,354.307766 311.204444,354.584683 315.601309,354.537017 C312.571651,348.590101 309.687344,342.93372 306.805308,337.27734 L306.805308,337.27734 Z M67.1761877,280.861074 C65.5546167,277.708301 63.558313,275.220583 60.5672641,273.438778 C57.0697582,271.352817 53.7766519,268.937733 50.9354961,265.950656 C48.3918555,263.276813 45.809606,260.623399 43.0842767,258.137951 C42.0055005,257.152851 40.520196,256.587667 39.1666158,255.945309 C38.6942254,255.718328 38.0583152,255.834088 37.2384453,255.772803 C37.4950805,256.54908 37.5745693,257.075677 37.8266622,257.497863 C38.8872695,259.279668 40.2976275,260.691493 42.1145137,261.756037 C44.1335284,262.938611 46.0571567,264.277802 48.0103094,265.567057 C49.7204535,266.695156 50.8015008,268.254519 51.3851755,270.236068 C51.9415969,272.117745 52.6229292,273.954026 54.1423003,275.363581 C56.7608875,277.792284 59.511199,279.953148 62.9133184,281.253753 C64.4167917,281.830286 65.6613588,281.789429 67.1761877,280.861074 L67.1761877,280.861074 Z M79.3947473,277.919393 C79.4674228,277.197592 79.5809782,276.705042 79.5537249,276.221571 C79.4401695,274.185547 79.2584809,272.156332 79.1471966,270.120307 C78.8156149,263.948679 78.4613221,257.77705 78.2115002,251.600882 C78.1138426,249.210766 77.5733189,247.226948 75.4589176,245.742488 C73.5648138,244.410107 72.5768819,242.317337 71.7274876,240.18825 C71.0007331,238.370127 70.2376409,236.561084 69.3996021,234.792898 C69.1815758,234.334395 68.61607,234.043859 67.8507067,233.349295 C67.8507067,235.038038 67.5918004,236.281897 67.8983999,237.364599 C68.8817896,240.841956 70.0355123,244.273918 71.1983195,247.699069 C72.072696,250.27077 73.1673699,252.769837 73.9667998,255.359697 C75.0614738,258.902879 75.7746016,262.518695 75.6837573,266.27524 C75.636064,268.222741 75.7291794,270.20429 76.0448634,272.122285 C76.4059696,274.310387 76.9283243,276.537076 79.3947473,277.919393 L79.3947473,277.919393 Z M436.60593,305.878981 C436.551423,305.872172 436.499188,305.863093 436.444681,305.854013 C436.444681,305.40232 436.492374,304.946087 436.435597,304.501203 C436.17669,302.406164 435.191029,300.744659 433.187912,299.961572 C431.180253,299.176216 429.274794,299.657417 427.750881,301.141876 C426.790202,302.074771 425.947621,303.166552 425.216324,304.29465 C424.269272,305.745062 423.338118,307.238601 422.668141,308.827472 C421.643872,311.247095 420.637771,313.712115 420.013216,316.252038 C419.300089,319.150593 420.81946,321.143491 423.737833,321.542978 C427.146766,322.008291 429.849384,320.503403 431.797995,317.911274 C433.841991,315.194304 435.138794,312.030182 436.051779,308.743489 C436.312957,307.810594 436.426512,306.836844 436.60593,305.878981 L436.60593,305.878981 Z M67.1398499,358.944999 C70.2081165,359.119775 93.0327494,360.218366 94.4635473,359.355836 L94.4635473,343.946058 C90.0712249,346.297587 85.5244672,346.708423 80.9141184,346.830994 C76.2765164,346.953564 71.8614829,345.76191 67.1398499,344.300149 L67.1398499,358.944999 Z M89.1491551,278.759225 C90.3755533,279.176871 91.4702272,279.478757 92.5035813,279.923641 C93.6459485,280.416191 94.3181964,280.041671 94.9313955,279.054301 C96.3372112,276.791295 97.3319563,274.373942 98.0950486,271.827209 C98.6128611,270.104419 99.2873801,268.411136 100.068641,266.790488 C100.92712,265.013222 102.312496,263.737586 104.379204,263.469748 C105.782748,263.288162 106.54584,262.45514 106.829729,261.159075 C107.313475,258.946005 107.890336,256.739745 108.149243,254.497167 C108.580753,250.76559 109.94796,247.574229 112.509769,244.775547 C114.328927,242.782649 115.907347,240.54688 117.417633,238.299763 C118.566814,236.592862 119.223164,234.64309 118.889311,232.502654 C118.659929,231.015925 117.819619,230.491598 116.513732,231.190701 C115.741556,231.606077 115.010259,232.232546 114.474278,232.929379 C111.928366,236.24785 110.000195,239.93403 108.576211,243.847192 C107.333915,247.260995 105.385304,249.90079 102.074029,251.600882 C99.0421005,253.157976 96.123727,255.032843 94.2818586,258.004032 C92.4990391,260.879888 90.9297036,263.896473 89.4307725,266.933486 C89.0333286,267.737001 89.062853,268.85602 89.187764,269.793454 C89.5170746,272.278902 89.8327586,274.739382 89.1650529,277.22029 C89.0514975,277.637936 89.1491551,278.110058 89.1491551,278.759225 L89.1491551,278.759225 Z M77.6823321,325.560552 C81.9497436,325.844279 86.5623634,323.467782 89.3263015,318.964468 C91.7132358,315.076274 91.6791692,310.863496 89.5284301,307.068365 C87.5820908,303.631864 84.1640736,301.84098 80.0738086,301.779695 C73.1741832,301.675283 68.8976873,305.822236 67.3079119,311.830438 C65.2412039,319.643143 71.8682963,326.121196 77.6823321,325.560552 L77.6823321,325.560552 Z M272.152746,340.012468 C249.366722,347.060245 226.689712,352.516881 203.842368,358.56594 C205.834129,359.228726 242.921319,360.517981 244.72912,360.059479 C244.238561,359.035792 243.686682,358.057501 243.284696,357.020196 C242.339915,354.591493 243.182496,353.470204 245.810168,353.52468 C250.193406,353.615472 254.574372,353.701725 258.95761,353.76755 C260.422475,353.790248 261.889611,353.740312 263.458946,353.722154 C263.404439,353.057098 263.368102,352.691657 263.345391,352.326217 C263.197769,349.892975 264.124381,348.058964 266.386404,347.012579 C267.412945,346.540457 268.455383,346.100113 269.51599,345.707435 C270.347216,345.40101 271.214779,345.194457 272.152746,344.915269 L272.152746,340.012468 Z M560.581159,280.395762 C556.470454,280.284541 552.62774,280.096147 548.785026,280.102776 C544.71293,280.112035 540.638562,280.404841 536.566466,280.398032 C530.073369,280.388953 523.580272,280.277732 517.089446,280.116575 C515.454248,280.075718 514.600312,280.774821 514.018908,282.184377 C512.81295,285.105629 511.502521,287.986025 510.314732,290.916357 C509.279106,293.474439 508.354766,296.080188 507.264634,298.976472 C525.21547,298.676857 542.78703,298.38632 560.581159,298.091244 L560.581159,280.395762 Z M345.986459,159.264786 C347.876021,159.178533 349.436272,159.105899 350.994252,159.033264 C356.272306,158.785855 361.557174,158.608809 366.828415,158.270606 C373.680347,157.832532 380.523195,157.258269 387.372856,156.75437 C392.039982,156.411628 396.718464,156.182376 401.374235,155.714794 C403.45457,155.505971 405.539447,154.983914 407.533479,154.332476 C410.315586,153.420011 411.228572,151.399875 410.229284,148.603462 C409.647881,146.973734 408.966548,145.346277 408.076274,143.870897 C406.559174,141.346862 404.855843,138.947667 401.980621,137.708347 C399.975233,136.845818 398.02208,135.858448 396.03259,134.961871 C392.659995,133.441094 389.076187,133.027988 385.431059,133.073384 C381.358963,133.12105 377.270969,133.540966 373.219312,133.298096 C368.681639,133.025718 365.047867,130.794489 362.838079,126.677044 C361.986413,125.088173 361.411823,123.351764 360.619207,121.726576 C358.88408,118.172045 357.169394,116.975852 353.254004,117.935984 C350.435559,118.626008 348.309803,120.412353 346.231739,122.318998 C345.470918,123.015831 345.218825,123.733093 345.236994,124.693225 C345.398242,133.291286 345.532238,141.889348 345.698029,150.485139 C345.752535,153.267933 345.877446,156.048457 345.986459,159.264786 L345.986459,159.264786 Z M78.3273267,208.199739 C83.8733718,207.704919 89.0787508,207.412113 94.2273521,206.701661 C96.3690067,206.404315 97.9837643,205.330692 97.8270578,202.025841 C97.6249292,197.799444 96.1373537,194.135962 93.1349492,191.055822 C90.3392156,188.186775 86.9234695,186.28467 83.4804702,184.375755 C80.2691238,182.59168 76.7784312,182.085511 73.2196054,182.248938 C68.9908028,182.444142 65.1344618,184.042092 61.407574,185.962356 C57.9236947,187.75551 54.4716109,189.625838 50.9286828,191.294153 C46.4659561,193.396002 42.0486515,192.92842 37.9424887,190.338561 C33.859037,187.76232 29.9345628,184.93413 25.8942621,182.287525 C22.4217384,180.01317 18.8606414,178.694407 14.6182121,180.573814 C9.57635293,182.807313 5.67231871,185.960086 4.52086708,191.591499 C4.10525437,193.632063 4.09162772,195.781578 4.09561457,197.881158 C4.10298326,200.246305 5.28168818,202.202886 6.73746825,203.989231 C8.76556747,206.479219 11.5930966,207.650444 14.5818744,208.18612 C17.9839938,208.794431 21.4587887,209.114475 24.9154147,209.286981 C33.5842329,209.720516 42.2621357,209.970195 50.9468517,209.584327 C57.2082958,209.305139 63.474282,209.143982 69.7379972,208.862525 C71.2959771,208.792161 72.8426015,208.463038 74.6572166,208.217898 C74.5890834,206.71301 74.5527456,205.380628 74.4596302,204.050516 C74.3960392,203.149399 74.1348618,202.248283 74.1734706,201.356245 C74.2302483,200.012514 73.8464311,199.102318 72.6154907,198.378247 C71.2233017,197.556574 70.6260003,196.117511 70.6759647,194.508212 C70.746369,192.292872 72.2225891,190.549653 74.2733994,190.125198 C76.246992,189.716631 78.9609658,191.024045 79.8603244,192.817199 C80.7165321,194.521831 80.1373996,196.839312 78.4136288,198.289724 C77.8027008,198.802703 77.2894305,199.274824 77.3939014,200.153243 C77.6959588,202.681817 77.9821183,205.212662 78.3273267,208.199739 L78.3273267,208.199739 Z M551.269618,218.842904 C551.269618,218.851983 551.269618,218.861063 551.267347,218.872412 C552.17579,218.872412 553.084233,218.833825 553.990405,218.876951 C559.745392,219.153869 565.459499,218.627272 571.159979,217.953136 C574.419019,217.567268 576.208652,215.413213 576.272243,212.144679 C576.322207,209.656961 575.604537,207.357638 574.416748,205.2399 C573.315261,203.281049 571.954867,201.465196 570.757993,199.556281 C568.23025,195.51601 564.893993,192.247475 561.001314,189.575903 C557.533333,187.194866 553.742854,185.655931 549.425478,185.438029 C544.517614,185.188349 539.93679,186.439017 535.594432,188.404678 C532.112824,189.97993 528.912833,192.174841 525.56522,194.056518 C521.820163,196.158368 518.118258,198.353279 514.273272,200.257654 C509.699261,202.52293 504.81638,202.65685 499.881263,201.630893 C497.587444,201.156501 495.309523,200.602666 493.020246,200.098767 C486.306852,198.618848 480.881175,203.562506 479.902328,210.074607 C479.33228,213.860659 481.651081,217.29489 485.927577,218.484273 C490.422099,219.737212 495.032448,219.841623 499.642796,219.803036 C503.494595,219.768989 507.346394,219.50569 511.200464,219.458024 C517.536854,219.38085 523.875516,219.455754 530.209635,219.358152 C537.22963,219.249201 544.249624,219.01995 551.269618,218.842904 L551.269618,218.842904 Z M293.205915,353.495172 C297.838975,354.239671 301.942867,351.704287 302.751381,347.373479 C303.298718,344.429529 303.439527,341.374357 303.421358,338.371391 C303.400918,334.828209 302.771821,331.323614 301.82704,327.891653 C301.574947,326.970107 301.849751,326.20291 302.740026,325.83066 C303.553082,325.490188 304.202619,325.910104 304.699992,326.561541 C304.929373,326.861156 305.1474,327.172121 305.338173,327.498974 C307.125535,330.560956 309.055976,333.550303 310.650294,336.709886 C312.826015,341.015726 314.738288,345.453215 316.770929,349.82942 C317.472702,351.345657 318.2903,352.750672 320.204844,353.14789 C321.238198,352.04022 321.640184,350.746425 321.531171,349.366377 C321.392634,347.645857 321.204132,345.902639 320.779434,344.234325 C319.523512,339.304285 317.347791,334.716988 315.131189,330.170547 C313.012246,325.82612 310.677547,321.590645 308.463217,317.293884 C307.057401,314.567835 305.222346,312.136863 302.824057,310.277884 C298.604338,307.00935 293.712372,305.329686 288.395709,304.896151 C286.360797,304.730455 284.328155,304.528441 282.290971,304.41949 C279.424833,304.262873 276.54734,303.985955 273.685744,304.099446 C267.042754,304.360475 260.406577,304.800819 253.7704,305.216195 C249.175949,305.502192 244.586041,305.903949 239.989318,306.180867 C238.76292,306.253501 238.176975,306.739241 238.149721,307.946783 C238.113383,309.526575 238.00437,311.106367 238.02481,312.686158 C238.12701,320.392182 238.18833,328.100476 240.25958,335.620375 C241.12033,338.745911 242.017418,341.839669 243.931962,344.606574 C244.39981,344.558908 244.85176,344.570257 245.274186,344.459036 C250.827045,343.015434 256.37309,341.537784 261.928219,340.10553 C265.364405,339.220302 268.857369,338.539357 272.243591,337.497512 C273.978717,336.961836 274.814485,336.743933 275.518528,339.222572 C275.940954,340.709301 275.863736,342.370806 275.822857,343.948328 C275.741097,347.291766 274.539681,348.526546 271.210237,348.894256 C270.840046,348.932843 270.4585,348.84432 270.086038,348.869288 C267.69002,349.037254 266.979163,349.799912 266.89059,352.394311 C270.449416,353.545108 273.953735,353.170588 277.478494,352.065188 C279.874513,351.313879 281.155418,349.686421 281.328022,347.291766 C281.477915,345.194457 281.398426,343.074449 281.314395,340.96806 C281.255346,339.465442 280.973729,337.969634 280.901053,336.464746 C280.882885,336.126543 281.259888,335.561359 281.564217,335.468297 C281.900341,335.368425 282.456762,335.597676 282.745193,335.867784 C283.049521,336.151511 283.258463,336.639522 283.322054,337.066247 C283.660449,339.302015 284.066978,341.540053 284.207786,343.79398 C284.414457,347.132879 284.078333,350.403683 281.391613,353.560997 C283.349308,353.560997 284.721057,353.383951 286.029215,353.595044 C288.859015,354.051277 290.108124,352.274011 291.223238,350.224368 C291.47306,349.765865 291.618411,349.246077 291.775117,348.742178 C292.885689,345.192187 292.626783,341.571831 292.233881,337.962824 C292.029481,336.087957 291.607055,334.235787 291.400385,332.360919 C291.345878,331.86383 291.577531,331.085283 291.947722,330.842413 C292.599529,330.415687 293.289946,330.833334 293.632884,331.498389 C293.97355,332.158906 294.239269,332.871628 294.423229,333.591159 C294.611731,334.31977 294.65034,335.084698 294.770708,335.829198 C295.660983,341.235898 296.060698,346.615361 293.887248,351.854095 C293.689661,352.333026 293.489804,352.811957 293.205915,353.495172 L293.205915,353.495172 Z M565.454957,363.688914 C563.140698,363.561804 561.037652,363.393838 558.932335,363.339362 C553.726956,363.203173 548.519306,363.105571 543.313927,363.012509 C538.39925,362.923986 533.484573,362.792336 528.572167,362.803686 C524.270689,362.815035 519.971482,363.028397 515.672275,363.101031 C509.474422,363.207713 503.274298,363.164586 497.083258,363.377949 C490.653752,363.600391 484.240144,363.566344 477.821993,363.11919 C476.820435,363.051095 475.671254,363.262188 474.783251,363.718421 C472.291846,364.996327 469.670987,365.561511 466.913863,365.625066 C462.841766,365.720399 458.767399,365.743097 454.697574,365.865667 C449.487653,366.022284 444.266376,366.060871 439.076895,366.485326 C430.614747,367.17762 422.154871,366.832608 413.692724,366.81445 C409.911329,366.80537 406.129935,366.523913 402.34854,366.546611 C393.961339,366.594277 385.571867,366.748625 377.184666,366.868925 C372.494829,366.93702 367.804991,367.045971 363.115154,367.091367 C357.907504,367.143573 352.672601,367.484045 347.496746,367.082288 C340.242828,366.521643 332.993452,366.653293 325.744076,366.469438 C320.079933,366.326439 314.411248,366.394534 308.747106,366.31282 C302.17452,366.217488 295.604205,366.056331 289.031619,365.933761 C285.71126,365.870206 282.388629,365.865667 279.06827,365.768065 C274.237623,365.627336 269.411519,365.384466 264.580873,365.266435 C261.5603,365.191531 258.532913,365.33453 255.514611,365.239198 C253.947547,365.189262 252.269198,365.123437 250.854298,364.542364 C248.898874,363.741119 246.936637,363.495979 244.89264,363.452853 C235.908138,363.255379 226.916822,363.160047 217.934591,362.844542 C209.708639,362.554006 201.491771,362.018329 193.270361,361.607493 C191.537506,361.51897 189.793295,361.357813 188.071795,361.480383 C185.512257,361.661968 182.97543,362.12955 180.418162,362.356532 C174.54962,362.878589 168.681077,363.545915 162.798908,363.73658 C158.281675,363.881848 153.737188,363.471011 149.215413,363.148697 C145.606623,362.892208 142.056881,362.095503 138.389042,362.295247 C132.429656,362.61983 126.463455,362.808225 120.494984,362.937605 C112.187272,363.11465 103.877289,363.271268 95.5695767,363.278077 C88.2429831,363.284886 80.9186606,363.089682 73.5943382,362.958033 C69.438211,362.883129 65.2843549,362.724242 61.1282277,362.662957 C57.5126242,362.608481 53.8992918,362.665227 50.2836882,362.62664 C43.0297701,362.549466 35.7758519,362.356532 28.5219338,362.372421 C22.1878143,362.386039 15.8536948,362.61983 9.52184635,362.767368 C8.02972856,362.801416 6.53988187,362.878589 4.99098639,362.937605 C4.65032023,369.052488 4.3210096,374.967627 3.97807233,381.143795 C5.3157548,381.143795 6.3422955,381.130176 7.36656509,381.146065 C12.5696729,381.230048 17.7727808,381.357158 22.9736175,381.393475 C26.2939771,381.416173 29.6120655,381.261826 32.932425,381.275444 C38.5216212,381.298143 44.1085463,381.420713 49.6977424,381.45022 C57.1787713,381.491077 64.6598003,381.479728 72.1408292,381.495617 C77.2712616,381.506966 82.4039651,381.520585 87.5343975,381.543283 C94.8564489,381.5796 102.176229,381.615917 109.498281,381.670392 C121.065032,381.758915 132.631784,381.872406 144.198536,381.954119 C149.862679,381.994976 155.529092,382.010865 161.193235,382.006325 C165.494713,382.001785 169.796191,381.9405 174.097669,381.910993 C176.282475,381.897374 178.471823,381.851978 180.656629,381.897374 C185.705301,382.001785 190.753974,382.201529 195.802646,382.269624 C199.045788,382.31275 202.293472,382.144784 205.536614,382.158403 C212.563421,382.18791 219.585686,382.280973 226.610223,382.335448 C233.63703,382.389924 240.661566,382.419431 247.686103,382.476177 C253.50241,382.523843 259.318717,382.632794 265.135023,382.653222 C272.239049,382.67819 279.345345,382.594207 286.44937,382.641873 C292.72444,382.68273 298.99724,382.891553 305.274582,382.939219 C314.713306,383.011853 324.154301,382.995965 333.593024,383.039091 C341.305706,383.075408 349.016117,383.148042 356.728799,383.188899 C363.755606,383.227486 370.784685,383.234295 377.813763,383.277422 C383.250795,383.311469 388.690098,383.415881 394.129401,383.42269 C399.184887,383.42723 404.240373,383.30466 409.29813,383.320548 C412.909191,383.331897 416.517982,383.529371 420.129043,383.552069 C429.047683,383.606545 437.966323,383.579307 446.884963,383.640592 C454.21837,383.692798 461.549506,383.869844 468.882913,383.903891 C476.504751,383.937938 484.128859,383.833527 491.750697,383.863034 C494.621377,383.874383 497.492057,384.180808 500.365009,384.185348 C506.787701,384.198967 513.212665,384.017382 519.633087,384.074127 C529.151299,384.15811 538.66497,384.398711 548.180911,384.53263 C552.630011,384.596185 557.079111,384.580296 561.528211,384.559868 C562.482077,384.555328 563.435942,384.380552 564.389807,384.28522 C564.47838,383.779051 564.551056,383.490784 564.578309,383.197978 C564.891722,379.741049 565.200593,376.28412 565.509463,372.827191 C565.777454,369.826495 566.22032,366.823529 565.454957,363.688914 L565.454957,363.688914 Z M326.668417,354.922886 C327.833495,351.166341 328.841867,347.541446 330.086434,343.998264 C331.485436,340.017007 333.020705,336.076607 334.637734,332.174795 C337.292659,325.764835 340.14517,319.43432 342.750131,313.003932 C344.564746,308.527856 346.147708,303.954178 347.746568,299.394118 C348.36658,297.621392 349.161468,295.764683 349.145805,293.951101 C349.122859,291.029848 348.566438,288.099516 348.105403,285.194152 C347.324142,280.273192 346.149979,275.447564 344.728266,270.662793 C342.879584,264.443499 341.526004,258.069856 339.502447,251.911847 C336.770304,243.602052 333.677055,235.405748 329.943354,227.468203 C327.506456,222.283945 324.996882,217.160971 321.465309,212.580483 C318.435651,208.649163 314.894994,205.251249 310.884218,202.420789 C307.879542,200.300781 304.565996,198.58707 301.286517,196.893788 C298.204623,195.307187 295.106832,193.55035 291.804642,192.642423 C285.624958,190.942331 279.338531,189.521427 273.011225,188.50001 C264.728495,187.163089 256.341294,186.65465 247.935924,186.77949 C236.900612,186.940647 225.869842,187.011011 214.882222,188.361551 C206.481395,189.392047 198.135074,190.697191 189.861428,192.478997 C186.759095,193.146322 183.668117,193.872663 180.561242,194.52864 C172.185397,196.294557 163.963987,198.405485 156.451162,202.802118 C151.304832,205.811893 146.555946,209.227966 142.720045,213.778946 C140.192302,216.781912 137.719065,219.868861 135.600122,223.162363 C133.776422,225.995093 132.17302,229.061614 131.037466,232.225737 C129.129736,237.546184 127.451387,242.966504 126.511149,248.572948 C125.73443,253.187483 124.753311,257.77478 124.167366,262.414283 C123.563251,267.196785 123.263465,272.020143 122.943238,276.834422 C122.688874,280.677219 122.59803,284.531366 122.443595,288.380973 C122.31187,291.701713 122.150622,295.020184 122.080217,298.340924 C122.016626,301.205431 121.846293,304.090367 122.1052,306.929906 C122.650266,312.867743 123.363393,318.794232 124.167366,324.702562 C124.735142,328.888102 125.411933,333.073641 126.322647,337.195627 C127.480912,342.44798 130.20397,346.99442 133.388063,351.268483 C134.01716,352.117394 134.573581,353.072986 135.368469,353.735772 C138.11878,356.021477 141.137083,357.864567 144.668655,358.724827 C149.022369,359.784831 153.423776,360.506632 157.913756,360.41357 C161.690608,360.334126 165.469731,360.157081 169.242041,359.950527 C172.410236,359.778021 175.587516,359.639563 178.730729,359.240075 C184.199557,358.543242 189.652486,357.70568 195.098603,356.831801 C198.521162,356.282505 201.952806,355.712782 205.314045,354.87522 C211.246179,353.39984 217.11245,351.656621 223.033228,350.131305 C227.863874,348.887446 232.737671,347.811554 237.584215,346.62444 C238.356392,346.436046 239.080875,346.059256 239.739497,345.805037 C239.739497,345.385121 239.775834,345.226234 239.732683,345.092315 C239.637297,344.806318 239.519199,344.524861 239.382933,344.257023 C237.005083,339.61298 235.874071,334.587608 235.285854,329.480523 C234.445544,322.198955 234.02539,314.88107 234.788482,307.547296 C234.813464,307.288537 234.613606,307.00708 234.481882,306.623481 C233.748314,306.689306 233.080609,306.739241 232.415174,306.811876 C229.256063,307.147808 226.099223,307.49055 222.940113,307.831023 C216.851273,308.491539 210.746535,309.022676 204.678135,309.844349 C197.272053,310.847608 189.893224,312.057419 182.514395,313.249072 C179.843572,313.680337 177.209087,314.334044 174.554162,314.856102 C173.890999,314.985481 173.198311,315.089893 172.537418,315.028608 C172.167228,314.994561 171.517691,314.554216 171.542673,314.372631 C171.603993,313.939096 171.915135,313.462435 172.262614,313.167359 C172.589654,312.890442 173.091569,312.820077 173.520808,312.672539 C174.511011,312.336607 175.505756,312.007483 176.548195,311.660202 C176.632226,311.144953 176.78439,310.702339 176.761679,310.268805 C176.607243,307.100142 176.459621,303.92921 176.23024,300.765087 C175.864591,295.719287 175.294543,290.682566 175.074246,285.632227 C174.810797,279.589978 174.819882,273.53638 174.717682,267.487321 C174.708597,266.960724 174.592771,266.368302 174.792628,265.923418 C175.010655,265.439948 175.501214,264.827097 175.941809,264.763543 C176.39603,264.699988 177.143225,265.108555 177.388504,265.52847 C177.749611,266.14586 177.897233,266.953915 177.924486,267.687065 C178.028957,270.388145 178.001704,273.091496 178.106175,275.792576 C178.294676,280.615934 178.530872,285.439292 178.767067,290.260381 C179.041871,295.905412 179.337115,301.550443 179.627817,307.193205 C179.689137,308.368969 179.759541,309.544734 179.834488,310.833989 C184.615169,310.105378 189.159656,309.397195 193.710956,308.72533 C199.913351,307.808325 206.106662,306.795987 212.331768,306.051487 C221.711443,304.927929 231.104745,303.904242 240.509402,303.028093 C246.680002,302.45383 252.898295,302.399354 259.05981,301.772885 C265.773205,301.09194 272.491141,301.123718 279.209078,301.137337 C282.445407,301.144146 285.679464,301.682092 288.915793,301.945391 C292.465534,302.233658 295.938058,302.826079 299.208453,304.326428 C299.928394,304.657821 300.700571,304.873453 301.736196,305.245703 C301.581761,304.124414 301.490916,303.31409 301.35465,302.510575 C301.143437,301.246288 300.882259,299.98881 300.67786,298.722253 C299.921581,294.023735 299.217537,289.320677 298.424921,284.628968 C297.409736,278.618497 296.321875,272.619374 295.281708,266.613442 C295.129544,265.721405 295.038699,264.818018 294.97965,263.914632 C294.929686,263.138355 295.015988,262.312142 295.908533,262.053383 C296.964599,261.746958 297.43926,262.564091 297.732233,263.344908 C298.072899,264.257374 298.261401,265.231125 298.474885,266.188987 C298.588441,266.701965 298.592983,267.239911 298.681556,267.761969 C300.396242,278.046503 302.126826,288.326498 303.823344,298.613302 C304.252583,301.21905 304.668196,303.833878 304.877138,306.462324 C304.956627,307.451964 305.224617,308.132908 305.855985,308.85471 C307.298139,310.498056 308.865203,312.093736 309.978046,313.952715 C312.183292,317.636626 314.172782,321.456725 316.139561,325.276825 C317.452262,327.825828 318.490158,330.517829 319.800587,333.069102 C322.128472,337.604193 323.834074,342.332219 324.667571,347.36894 C324.996882,349.359568 324.801566,351.273023 324.020305,353.136541 C323.80455,353.649519 323.688723,354.205624 323.472968,354.922886 L326.668417,354.922886 Z M345.118896,118.614659 C346.286246,117.906477 347.103844,117.384419 347.946425,116.907758 C350.19028,115.638931 352.470472,114.563038 355.127668,114.308819 C357.267052,114.102266 358.98628,114.674259 360.514736,116.074735 C362.34752,117.754399 363.471718,119.856248 364.266606,122.187349 C365.73147,126.48184 368.652115,129.316839 373.212499,129.816199 C376.260326,130.149862 379.398997,130.025022 382.464992,129.752644 C390.472918,129.037652 397.747276,131.001042 404.447044,135.309152 C405.523549,136.001446 406.647747,136.69601 407.531208,137.599396 C410.658524,140.793027 412.786552,144.558651 413.722248,148.971172 C414.367243,152.017265 413.365684,154.718345 410.731199,156.373041 C408.412398,157.832532 405.877842,158.59065 403.284237,158.912964 C397.976658,159.568941 392.632741,159.957079 387.295638,160.352027 C383.979821,160.597167 380.645835,160.583549 377.327746,160.80599 C371.297955,161.207748 365.274977,161.743424 359.242915,162.133833 C355.470605,162.376703 351.68694,162.433448 347.910088,162.612764 C346.288517,162.689937 346.07049,162.891951 346.061406,164.510329 C346.047779,167.150125 346.124997,169.78992 346.170419,172.429716 C346.209028,174.694992 346.231739,176.960268 346.302143,179.225544 C346.433868,183.445131 346.651894,187.664718 346.731383,191.886575 C346.826769,196.939184 346.742738,201.996333 346.865378,207.048943 C347.028898,213.912865 347.369564,220.774517 347.535355,227.638439 C347.77155,237.369139 347.921443,247.099838 348.09859,256.828267 C348.148554,259.536157 348.464238,262.282634 348.107674,264.938318 C347.748839,267.594003 348.241669,269.977309 348.941171,272.455947 C349.717889,275.213773 350.283395,278.030614 350.926119,280.824757 C351.291767,282.418168 351.62562,284.018388 351.973099,285.614068 C352.136619,285.632227 352.300139,285.652655 352.461388,285.673083 C352.942862,284.293036 353.583315,282.944765 353.878559,281.52613 C355.059535,275.849322 357.158038,270.549302 359.942416,265.471725 C361.389112,262.836469 362.483786,260.012819 363.819197,257.314008 C365.268164,254.383676 366.941971,251.62358 369.919393,249.925758 C373.064877,248.134874 376.460183,247.217868 380.034907,246.877396 C383.266693,246.568701 386.534817,246.480178 389.716639,245.905915 C394.738058,245.002528 399.800357,245.136448 404.842217,244.925355 C410.956039,244.668866 417.081216,244.696103 423.201852,244.675675 C430.676067,244.650707 438.152554,244.662056 445.62677,244.73469 C452.340164,244.798245 459.051288,244.934434 465.762411,245.10013 C470.822439,245.22497 475.877925,245.451952 480.935682,245.626728 C481.537525,245.647156 482.143911,245.60403 482.745755,245.638077 C486.520336,245.84917 490.304001,245.955851 494.060413,246.33264 C497.739608,246.70262 501.387007,247.374486 505.054846,247.871575 C508.366121,248.320999 511.62289,248.942928 514.600312,250.552227 C517.073548,251.889149 518.949483,253.818492 519.973753,256.453748 C521.11612,259.390889 520.934431,262.425633 520.13273,265.380932 C519.380994,268.141028 518.352182,270.82849 517.452823,273.549999 C517.128055,274.535098 516.83054,275.529278 516.469434,276.682344 L523.157846,276.682344 C523.157846,274.14469 523.151033,271.815859 523.160117,269.489299 C523.189641,260.961602 523.230521,252.433904 523.253232,243.906207 C523.271401,237.941132 523.282757,231.976057 523.262317,226.010982 C523.260046,225.062199 523.08517,224.115686 522.992055,223.187331 C515.84715,223.187331 508.977049,222.980778 502.125117,223.255426 C497.037836,223.459709 492.039128,223.20095 487.047233,222.306643 C483.488407,221.666555 480.486002,220.014129 478.242148,217.208637 C476.341231,214.83441 475.864298,211.958554 476.477497,209.057729 C477.245132,205.437374 479.030222,202.320917 481.882734,199.844548 C485.282582,196.893788 489.057163,195.543248 493.576668,196.600982 C496.808454,197.35683 500.065222,198.001458 503.324262,198.618848 C506.653706,199.249856 509.803732,198.491738 512.767528,197.018628 C515.538279,195.643119 518.20456,194.058788 520.961685,192.651503 C522.708167,191.759465 523.364517,190.524685 523.325908,188.506819 C523.189641,181.257029 523.314552,174.002698 523.223708,166.750637 C523.135135,159.730098 523.664303,152.725447 523.428108,145.695828 C523.235064,139.971354 523.571188,134.22872 523.593899,128.495166 C523.627965,120.19672 523.602983,111.898275 523.582543,103.599829 C523.568916,97.793641 523.832365,91.9692943 522.912566,86.201693 C522.22215,81.882234 521.740675,77.4992202 520.614205,73.2909822 C519.269709,68.2769596 517.866165,63.2288898 515.513297,58.5485302 C513.716851,54.9735707 511.983996,51.3509451 509.92183,47.930333 C508.177619,45.0363182 506.101827,42.3216188 503.994239,39.6704743 C501.743571,36.8377445 499.356637,34.1003469 496.894756,31.4446627 C493.176953,27.4384383 488.875474,24.0904603 484.369597,21.0239395 C481.317228,18.9425187 478.280757,16.7793845 475.014904,15.0792926 C468.923793,11.9083603 462.669162,9.09378901 455.967123,7.33241215 C450.695882,5.94782466 445.438268,4.64268072 439.96944,4.36803304 C432.188625,3.97762477 424.623565,5.20559498 417.147078,7.24842897 C408.782589,9.53640304 400.969978,13.0863946 393.507118,17.44898 C388.28357,20.501882 383.284862,23.8385108 378.692682,27.8288465 C371.913425,33.7212877 366.090305,40.3990851 361.003024,47.771446 C356.163293,54.785176 352.456845,62.3731694 349.563454,70.3447616 C347.630741,75.6697489 346.268077,81.1763214 345.3937,86.7895752 C345.207469,87.9789586 345.082558,89.179691 344.930394,90.3758838 C344.176386,96.3228005 344.764603,102.285606 344.741892,108.239332 C344.728266,111.550993 344.973545,114.864924 345.118896,118.614659 L345.118896,118.614659 Z M344.069644,252.472491 C344.103711,251.759769 344.178658,251.044777 344.167302,250.329785 C344.049204,243.758669 343.944733,237.187553 343.783485,230.616437 C343.619965,223.970418 343.345161,217.326667 343.208895,210.678378 C343.070357,203.88255 343.104424,197.082183 342.947717,190.286355 C342.704709,179.715824 342.336789,169.145293 342.077883,158.572492 C341.966599,154.04875 342.061985,149.522737 341.957514,144.998995 C341.809892,138.579957 341.516919,132.165458 341.378382,125.746419 C341.23076,118.948322 341.208049,112.147955 341.101307,105.349857 C341.074053,103.690622 340.955956,102.033656 340.846943,100.376691 C340.347299,92.8113959 341.759928,85.4889709 343.681285,78.2369102 C344.435293,75.3928314 345.150692,72.5283241 346.136352,69.7636888 C347.374106,66.2863314 348.809446,62.8747986 350.269769,59.4814244 C353.765003,51.3600243 358.784152,44.1601694 364.321112,37.3529926 C367.164539,33.8552068 370.596183,30.8318125 373.787089,27.6200235 C377.961385,23.4163251 382.753423,19.9503168 387.70898,16.7839241 C392.087676,13.9852415 396.734362,11.5746974 401.399217,9.26629499 C404.29488,7.83404138 407.408568,6.80127531 410.488191,5.78212813 C418.539267,3.11282504 426.712984,1.10403828 435.243265,0.504806978 C441.977099,0.0304155283 448.706392,-0.362262561 455.376635,0.543393842 C461.719839,1.40365394 468.083483,2.42734075 474.149612,4.66991851 C477.474514,5.90015854 480.894802,6.9170359 484.108419,8.38787638 C487.939778,10.140174 491.684835,12.1262626 495.309523,14.2803175 C500.112916,17.1380153 504.671029,20.3611534 508.820343,24.1517454 C512.338289,27.3635344 515.699528,30.702433 518.82003,34.3137096 C522.290283,38.3312831 525.281332,42.6734402 528.056625,47.1654052 C530.477626,51.0853767 532.485285,55.2187108 534.206785,59.5132018 C536.007774,64.0097064 537.638429,68.5402582 538.817134,73.2387764 C540.404638,79.5670222 541.260846,86.004219 541.635579,92.4958915 C541.860418,96.4045139 541.726423,100.333565 541.74005,104.253536 C541.76049,109.753299 541.780929,115.253062 541.771845,120.752825 C541.765032,126.633917 541.696898,132.515009 541.708254,138.396102 C541.71961,144.803791 541.828623,151.20921 541.826352,157.6169 C541.824081,163.652339 541.730965,169.685509 541.687814,175.720948 C541.671916,177.886352 541.683272,180.051756 541.683272,182.382857 C543.509242,182.282985 545.010445,182.287525 546.486665,182.1014 C552.520998,181.334202 557.839932,183.020675 562.654681,186.609254 C565.677525,188.860911 569.047849,190.724429 571.173606,193.986154 C573.6423,197.776746 576.304038,201.478815 578.379831,205.47823 C580.44881,209.466296 580.707716,213.747168 578.150449,217.812408 C577.264717,219.221963 575.945203,220.084493 574.44173,220.667836 C571.659623,221.745998 568.750334,222.147756 565.777454,222.165914 C558.666616,222.21131 551.553506,222.254437 544.442668,222.317992 C543.62734,222.324801 542.812012,222.46326 541.692356,222.569941 C541.206339,240.605896 541.842249,258.52155 541.276744,276.539346 C543.693202,276.646027 545.86211,276.811723 548.033289,276.823073 C551.571675,276.841231 555.112332,276.759518 558.650718,276.718661 C558.727935,276.718661 558.802882,276.716391 558.877829,276.718661 C562.999889,276.893437 563.767524,277.635667 563.749355,281.725874 C563.726644,287.093988 563.681221,292.462102 563.535871,297.825676 C563.474551,300.10911 563.136156,300.376949 560.865048,300.563073 C559.284357,300.694723 557.690039,300.658406 556.102535,300.719691 C547.642659,301.051084 539.187324,301.436952 530.727448,301.700251 C526.285161,301.83871 521.836061,301.793313 517.389232,301.777425 C513.91898,301.763806 510.446456,301.686632 506.976203,301.598109 C506.179044,301.577681 505.702112,301.859138 505.402326,302.587749 C503.165284,308.017148 500.578493,313.333056 498.763878,318.898643 C497.028751,324.216821 494.980212,329.389731 492.759069,334.492276 C490.349423,340.026086 487.726294,345.475914 484.97144,350.846297 C483.599691,353.51787 481.726027,355.932954 480.072661,358.459259 C479.750164,358.951809 479.404955,359.4262 479.064289,359.91875 C479.816026,360.808518 480.729011,360.479394 481.478477,360.458966 C488.959505,360.241064 496.438263,359.930099 503.921563,359.707657 C507.852851,359.589627 511.788681,359.578278 515.722239,359.55331 C524.484173,359.498834 533.248378,359.367185 542.010311,359.457977 C547.526832,359.514723 553.038811,359.939178 558.555331,360.154811 C561.119412,360.254683 563.688035,360.229715 566.254387,360.302349 C567.823722,360.345475 568.55729,360.765391 568.86616,362.243041 C569.23408,363.997609 569.552035,365.836159 569.429395,367.606615 C569.15232,371.674125 568.57773,375.723476 568.164388,379.784176 C568.028122,381.134716 567.916837,382.503415 567.971344,383.858495 C568.084899,386.600432 566.161271,388.062193 563.717559,388.000626 C559.722681,387.894227 555.72326,387.926004 551.72611,387.919195 C545.230742,387.910115 538.735374,387.923734 532.242277,387.912385 C525.140523,387.901036 518.04104,387.878338 510.941557,387.8511 C503.465071,387.821592 495.986313,387.803434 488.509826,387.744419 C482.016729,387.694483 475.525903,387.542405 469.032806,387.524247 C463.831969,387.512898 458.628861,387.671785 453.425754,387.683134 C450.861673,387.687673 448.295321,387.47885 445.731241,387.458422 C439.755956,387.410756 433.780672,387.456152 427.807658,387.392597 C423.578856,387.347201 419.350053,387.122489 415.123521,387.092982 C410.828857,387.063474 406.534192,387.190584 402.239527,387.222361 C399.820797,387.23825 397.402068,387.195123 394.983338,387.192854 C388.492512,387.188314 382.001686,387.208742 375.513131,387.181505 C371.96339,387.167886 368.415919,387.045316 364.866178,387.020348 C357.682664,386.968142 350.49915,386.972681 343.315637,386.904587 C338.337368,386.856921 333.361371,386.673066 328.383103,386.650368 C322.864311,386.6254 317.347791,386.759319 311.83127,386.74116 C301.188859,386.702573 290.546448,386.595892 279.901766,386.534607 C271.285183,386.484671 262.666329,386.457433 254.047475,386.421116 C248.764879,386.400688 243.480011,386.430196 238.197414,386.359831 C229.673947,386.244071 221.152751,386.026168 212.629283,385.924027 C207.641931,385.865011 202.652307,385.958074 197.664954,385.964883 C192.152976,385.969423 186.640997,385.983042 181.13129,385.937646 C178.03577,385.910408 174.94025,385.712934 171.84473,385.703855 C166.187401,385.685696 160.530072,385.75833 154.870471,385.778759 C152.61299,385.785568 150.353238,385.744711 148.093486,385.737902 C141.752553,385.722013 135.41162,385.717473 129.070687,385.694775 C126.958557,385.685696 124.846427,385.63576 122.734297,385.606253 C116.695421,385.526809 110.658817,385.433747 104.619941,385.379271 C102.205754,385.358843 99.7892949,385.474603 97.3751074,385.447365 C91.6382892,385.381541 85.901471,385.243082 80.1646529,385.181797 C76.2333654,385.138671 72.3020778,385.197686 68.3707903,385.177257 C57.0311493,385.120512 45.6915084,385.043338 34.3518674,384.979783 C30.0572026,384.957085 25.7625379,384.968434 21.4678731,384.932117 C15.9513524,384.884451 10.4348317,384.845864 4.92058205,384.718755 C2.29063928,384.65747 0.0354292809,382.469367 0.0127182034,379.836381 C-0.0304328438,374.779232 0.0308870654,369.719814 0.217117901,364.667204 C0.269353379,363.282617 0.868925825,361.907108 1.30952073,360.556568 C1.66835575,359.460247 2.5904255,359.203758 3.66693057,359.190139 C8.87230953,359.128854 14.0799596,359.019903 19.2853386,358.958618 C23.361977,358.910952 27.4363443,358.897333 31.5107116,358.885984 C35.8848651,358.874635 40.2567475,358.883714 44.9579406,358.883714 C45.030616,357.873646 45.1918647,356.931673 45.1487136,355.998779 C44.8807229,350.031433 44.4878212,344.070898 44.2993193,338.101283 C44.1585106,333.647905 44.2062039,329.185447 44.2766082,324.72753 C44.3311148,321.186617 44.5400567,317.647975 44.6967632,314.107063 C45.0010916,307.206823 46.6907958,300.649326 50.027053,294.611617 C52.1618943,290.752931 55.2165343,287.602427 58.8503067,285.053424 C59.2204972,284.794665 59.57479,284.513208 59.9290828,284.231751 C59.9813183,284.188624 59.9994872,284.100101 60.1471092,283.816374 C59.4203547,283.37149 58.6640758,282.924337 57.9259658,282.449945 C54.9212902,280.529681 52.0437967,278.45053 50.2382661,275.268249 C49.6137114,274.167388 49.1049833,272.975735 48.7370638,271.763654 C48.2260646,270.08626 47.3130793,268.790195 45.8345881,267.859571 C44.3015904,266.894899 42.7913038,265.887101 41.2560349,264.92243 C38.8577451,263.413002 36.6911083,261.651625 35.3420703,259.107162 C34.5562671,257.631782 33.9385258,256.072419 34.8265289,254.363248 C35.2784793,253.496178 35.8894073,252.969581 36.8909658,252.797075 C38.6192788,252.501999 40.1863432,252.812964 41.6807321,253.705001 C45.7505572,256.131434 49.0504767,259.440825 52.2481964,262.865977 C54.9258325,265.735024 57.7692594,268.406597 61.5438404,270.197481 C61.1463966,269.362189 60.7852905,268.506468 60.3446956,267.696144 C57.4285932,262.314412 54.4852376,256.948568 51.5714063,251.569105 C50.4926301,249.578477 49.4683605,247.556071 48.4100243,245.554094 C47.9035673,244.593962 47.3017237,243.944794 46.0344456,243.783637 C43.9268576,243.520339 42.1258692,241.000844 42.3302689,239.017025 C42.5596508,236.794875 44.6445277,235.003991 46.8815688,235.103863 C48.8120104,235.192386 50.1019996,236.361341 50.383617,238.297493 C50.4381236,238.669743 50.55395,239.087389 50.4449369,239.421052 C49.5523915,242.172068 51.2330113,244.214902 52.386734,246.355338 C54.6396729,250.538609 57.0515893,254.635626 59.320426,258.809816 C62.1706662,264.05309 64.9618576,269.328142 67.7348802,274.612272 C68.6410522,276.339602 69.4132288,278.135026 70.2739786,279.959958 C72.0068338,279.474217 73.6420314,279.015714 75.4134955,278.518625 C74.7821275,277.174894 74.0190353,276.026367 73.7056224,274.76662 C73.2514009,272.946228 72.8721259,271.039583 72.9039214,269.176064 C73.0242901,262.296253 71.2959771,255.877215 68.5570212,249.644301 C66.7946416,245.633537 65.1776128,241.545599 64.7120358,237.148967 C64.5576004,235.682666 64.7006802,234.123302 65.0345331,232.684239 C65.475128,230.782134 67.0376501,230.103459 68.9045007,230.779864 C70.6964047,231.431301 71.9773094,232.727366 72.7358594,234.413839 C73.5080361,236.129819 74.0576441,237.947942 74.6708432,239.734286 C75.1114381,241.014462 75.6701306,242.190227 77.1031996,243.26385 C77.1031996,242.312797 77.1395374,241.747613 77.0963863,241.184699 C76.8897155,238.399635 76.6376225,235.616841 76.4423073,232.829508 C75.9880857,226.424088 75.5770152,220.016399 75.1068959,213.613249 C74.9978827,212.137869 74.5663723,211.824635 73.0606278,211.901808 C65.4433324,212.294486 57.8260371,212.787036 50.2041995,213.073033 C45.2350157,213.259158 40.2544764,213.200143 35.2784793,213.163826 C30.8293792,213.129778 26.3734658,213.10935 21.9334502,212.843782 C17.9590116,212.605451 13.9664042,212.344422 10.2054498,210.694266 C3.36033103,207.69357 -0.230290326,201.603655 0.455584214,194.208596 C1.03244558,187.993841 3.94400572,183.322561 8.9495272,179.668158 C11.6884831,177.67072 14.6045855,176.597097 17.9090473,176.202149 C20.3391326,175.909343 22.6602047,176.245276 24.6951172,177.475516 C28.5673559,179.815696 32.3010571,182.389666 36.1210603,184.822909 C38.0901107,186.075847 40.1023122,187.2675 42.1326825,188.422836 C44.7535409,189.911835 47.3357904,189.012988 49.7658757,187.962064 C52.3912762,186.827156 54.9326458,185.467536 57.4263221,184.057981 C62.082093,181.424995 66.9399925,179.366272 72.3020778,178.873722 C79.1085878,178.251793 85.0657034,180.664607 90.6094774,184.359866 C94.3863296,186.877092 97.6658092,189.923184 99.3827666,194.185898 C100.357072,196.603251 100.979355,199.245317 101.267786,201.839716 C101.708381,205.796004 98.9194607,209.29152 94.9313955,209.952037 C91.2885386,210.555808 87.5979885,210.853153 83.9256073,211.273069 C82.2835964,211.461464 80.6393144,211.622621 78.881477,211.808746 C78.8042593,212.308105 78.6543662,212.73937 78.6838906,213.154746 C79.3061741,222.193152 79.9284577,231.229288 80.6029767,240.263154 C80.7437854,242.142561 81.0503849,244.015159 81.3728822,245.874138 C81.5659264,246.995426 82.0837389,247.919241 83.0080798,248.745454 C84.9180814,250.450086 86.1649195,252.517888 85.9559776,255.291602 C85.8174401,257.155121 85.901471,259.054956 86.1035996,260.913935 C86.2103417,261.908115 86.7803897,262.850088 87.3277267,264.311849 C88.0749212,262.861437 88.5950048,261.889956 89.0787508,260.902586 C90.5822241,257.836065 92.2378617,254.876226 94.8609911,252.597331 C95.6536077,251.907307 96.4643932,251.178696 97.3932763,250.715654 C98.7513987,250.039249 99.3237178,248.967896 99.748415,247.594658 C101.619808,241.53425 103.554792,235.492001 105.503402,229.456562 C106.661667,225.867983 107.894878,222.304373 109.078126,218.724874 C109.316592,218.012152 109.489196,217.276731 109.718578,216.459598 C109.366556,216.075999 109.007721,215.706019 108.67614,215.313341 C107.869896,214.369098 107.313475,213.322713 107.377066,212.031188 C107.495164,209.582057 108.705664,208.093058 110.985856,207.834299 C112.800471,207.627746 115.13517,208.199739 116.082222,210.721504 C116.899821,212.895987 116.420617,214.727729 114.372078,215.987476 C113.195644,216.711547 112.546107,217.630823 112.135037,218.947316 C109.929791,226.013252 107.640514,233.054219 105.364864,240.097457 C104.726683,242.072197 104.033995,244.028778 103.559334,246.069342 C105.146838,244.289806 106.091619,242.167529 106.89332,240.011204 C108.06294,236.86524 109.607294,233.90994 111.6899,231.331429 C112.732338,230.042174 114.322113,229.013948 115.87328,228.360241 C118.537289,227.238952 121.269432,228.816474 121.721382,231.587918 C122.250551,234.822406 121.812227,237.943402 119.806839,240.651292 C118.371499,242.591984 116.920261,244.544026 115.266894,246.294053 C112.577903,249.142672 111.555904,252.595061 110.999483,256.324368 C110.667901,258.555597 110.163715,260.764128 109.632276,262.956769 C109.178054,264.824828 107.851727,265.955196 106.016672,266.331985 C103.738751,266.801837 102.614553,268.11833 102.010438,270.358638 C100.952102,274.283149 99.5735397,278.121407 97.1275567,281.732684 C98.3925637,282.604293 99.4645265,283.400998 100.593267,284.10918 C103.656991,286.033984 106.003046,288.694208 108.1447,291.531477 C110.558888,294.731917 112.643765,298.129831 113.911043,301.988518 C115.21693,305.956155 116.250284,309.987348 116.286622,314.166078 C116.334315,319.30494 116.091306,324.443803 116.050426,329.582665 C116.029986,331.993209 116.266182,334.408293 116.241199,336.818837 C116.211675,339.762788 116.025444,342.704469 115.916431,345.64842 C115.761996,349.868007 115.614374,354.089864 115.475836,358.311721 C115.464481,358.602257 115.54624,358.892793 115.623458,359.489755 L136.974142,359.489755 C136.753845,359.262773 136.567614,358.965427 136.297352,358.80654 C132.743068,356.711501 130.392472,353.492902 128.105466,350.185781 C124.351325,344.751842 122.82287,338.525738 121.741822,332.179334 C120.869717,327.051821 120.213367,321.881181 119.631963,316.710541 C119.107337,312.061959 118.666743,307.392948 118.471427,302.721668 C118.341974,299.652877 118.757587,296.563658 118.848431,293.478979 C119.000595,288.499004 118.961987,283.507679 119.232248,278.534513 C119.552475,272.657961 119.943105,266.774599 120.633522,260.932094 C121.10137,256.975805 122.370919,253.114849 122.861479,249.158561 C123.426984,244.61439 124.969067,240.353946 126.079638,235.970932 C127.256072,231.335969 128.848119,226.805417 131.491688,222.812812 C134.907434,217.651251 138.550291,212.641768 143.094777,208.345007 C149.858136,201.955477 157.666205,197.331862 166.555321,194.710225 C172.850831,192.853516 179.284879,191.464389 185.66215,189.886867 C187.717503,189.380698 189.772855,188.842752 191.855461,188.486391 C195.950268,187.787288 200.065515,187.224374 204.167136,186.568397 C207.823619,185.985054 211.455121,185.183809 215.129773,184.779782 C219.40854,184.307661 223.721374,184.141964 228.022852,183.883205 C231.116101,183.69708 234.209349,183.506416 237.304869,183.440591 C244.479299,183.286244 251.65827,183.118277 258.819073,183.740207 C263.858661,184.176011 268.936858,184.44158 273.908313,185.2973 C281.257617,186.559318 288.677326,187.567116 295.640543,190.59051 C300.84138,192.848977 305.962727,195.218664 310.736596,198.273836 C315.80798,201.519672 320.132169,205.553134 323.818177,210.346985 C329.075791,217.188209 332.761799,224.823868 335.873217,232.79773 C337.269948,236.379499 338.89379,239.875015 340.272352,243.463593 C341.214862,245.921804 341.900736,248.475346 342.72742,250.978953 C342.906837,251.523708 343.192997,252.034417 343.429192,252.561014 C343.642676,252.531507 343.85616,252.501999 344.069644,252.472491 L344.069644,252.472491 Z" id="Fill-9" fill="#161616" mask="url(#mask-2)"></path>
                </g>
                <path d="M246.591135,108.19484 L246.889837,108.054782 C246.832833,107.831142 246.837393,107.560063 246.705143,107.399674 C246.52957,107.187328 246.246829,107.063084 246.011972,106.902695 C245.929886,106.995314 245.8478,107.090192 245.765714,107.185069 C246.041614,107.52166 246.315234,107.85825 246.591135,108.19484 M229.330258,110.560007 C228.860543,109.828093 228.368027,109.638338 227.770622,110.105949 C227.652054,110.200827 227.59733,110.593892 227.688536,110.695547 C228.178773,111.246742 228.700931,111.13831 229.330258,110.560007 M194.699056,146.423806 C195.686369,147.22349 196.571074,148.183562 197.658715,148.784455 C203.54155,152.044184 209.112002,155.823482 215.320901,158.550089 C220.891353,160.998839 226.568974,163.000308 232.506533,164.287935 C237.041788,165.272857 241.583884,164.710367 246.091778,164.077848 C248.711692,163.711891 251.379489,163.275905 253.862593,162.41071 C258.135629,160.924292 262.333419,159.191643 266.467365,157.352822 C270.480462,155.568216 274.411473,153.573524 277.868209,150.822068 C279.434685,149.577362 280.891712,148.197116 282.376102,146.898195 C278.050622,141.483384 271.057345,135.356991 268.69737,134.95489 C268.69737,135.87656 268.722452,136.773381 268.69281,137.667943 C268.597043,140.559456 268.099966,143.432897 266.704503,145.944899 C261.685852,154.978618 254.300385,160.562853 243.542549,161.095976 C237.630072,161.389645 232.698067,159.731543 228.919827,154.956028 C226.78559,152.25653 224.712916,149.507333 224.09043,146.14369 C223.109958,140.848607 223.130479,135.515121 224.961455,130.323951 C225.374165,129.153792 225.71163,127.958784 226.106099,126.700524 C219.133343,127.116179 199.995888,140.690477 194.699056,146.423806 M231.93421,113.352125 C228.789858,114.574241 226.511969,114.359636 225.187191,112.832556 C224.136034,111.623994 223.887495,109.719661 224.696955,108.411703 C225.998931,106.304062 227.980398,106.256623 230.196722,106.880105 C230.657316,105.737054 230.146558,104.862823 229.519512,104.164794 C228.623406,103.166318 227.579088,102.292087 226.559853,101.406561 C225.925966,100.857626 225.132467,100.410345 225.501855,99.396056 C225.732152,98.7567606 227.323709,98.3772495 228.174212,98.8697103 C231.542021,100.816964 234.132293,103.347038 234.057048,107.564581 C234.031966,109.039704 234.319267,110.311518 235.083123,111.617217 C236.282492,113.663866 236.572074,116.010961 236.738526,118.35128 C236.79097,119.085453 236.882177,119.817367 236.959702,120.598979 C237.376973,120.682562 237.659714,120.795512 237.942455,120.790994 C240.43924,120.734519 242.936024,120.608015 245.435089,120.610274 C246.504488,120.612533 247.152056,120.364044 247.366392,119.223252 C247.687896,117.529006 248.184973,115.864127 248.465433,114.163104 C248.593123,113.38601 248.385628,112.552441 248.351425,112.066757 C246.773548,111.337102 245.387206,110.896598 244.235721,110.114985 C242.920063,109.218165 242.363702,107.799516 242.543835,106.164004 C242.703447,104.725024 243.533429,103.717513 244.883288,103.426102 C245.863761,103.213757 246.949121,103.4758 248.14849,103.536793 C248.098326,101.74541 247.231862,100.193481 246.424683,98.6279979 C246.219467,98.2281558 245.916205,97.8802707 245.672227,97.4985006 C245.136387,96.6649316 245.293719,95.8381395 246.000571,95.2711319 C246.737066,94.6770163 247.453039,95.1649591 248.004839,95.7229308 C250.04559,97.7808749 251.046584,100.387755 251.703273,103.109843 C252.138785,104.921557 252.60394,106.796522 251.568743,108.619531 C251.400011,108.917718 251.379489,109.378553 251.461575,109.72192 C252.323479,113.309204 251.39089,116.729322 250.533546,120.160734 C250.44462,120.515397 250.376215,120.872318 250.264487,121.38285 C253.137499,122.234491 255.935266,123.063542 258.954209,123.958104 C260.910594,121.353484 262.714208,118.638172 263.409659,115.233867 C262.8875,114.924385 262.417786,114.698485 262.007355,114.393521 C260.71678,113.442484 259.991686,112.220368 259.996247,110.557748 C260.000807,109.267862 260.550328,108.346193 261.65849,107.840178 C262.734729,107.349976 263.738003,107.729487 264.558864,108.540466 C264.871247,108.849948 265.149428,109.193316 265.5895,109.683517 C266.745546,107.788221 266.959882,105.935845 266.53577,104.011182 C266.294072,102.91557 265.844879,101.867396 265.525656,100.785338 C265.334121,100.130229 265.126626,99.3418402 265.931526,99.002991 C266.763787,98.6528468 267.639372,98.8810053 268.115927,99.6942433 C269.892179,102.739368 270.660596,105.978766 269.595757,109.432769 C269.269693,110.496756 268.811379,111.623994 268.088565,112.44175 C267.07617,113.58706 266.686262,114.881464 266.412641,116.279782 C265.865401,119.101266 264.118792,121.324117 262.650363,123.682507 C262.3357,124.186263 261.982273,124.66517 261.52624,125.333832 C263.585232,126.736668 265.530216,128.139503 267.552726,129.420353 C272.297757,132.429334 276.682521,135.878819 280.597571,139.886275 C282.332779,141.661845 283.919776,143.579731 285.540976,145.459215 C286.368678,146.419288 285.974208,147.325145 285.171589,148.038987 C282.923343,150.044974 280.784545,152.220386 278.315122,153.921409 C275.218653,156.058418 271.962572,158.062146 268.546879,159.636665 C263.136039,162.130595 257.87569,165.137317 251.947251,166.291663 C247.644573,167.12975 243.262089,167.771305 238.888725,167.976873 C235.908545,168.116931 232.828037,167.60188 229.893459,166.944513 C224.646791,165.772094 219.438886,164.319561 214.62089,161.891142 C209.62504,159.372363 204.695315,156.709008 199.849957,153.914632 C197.246004,152.4124 194.797103,150.607464 192.439409,148.741534 C190.56967,147.261893 190.585631,146.636151 192.115625,144.84025 C193.13942,143.640724 194.258983,142.486378 195.494835,141.508233 C198.858083,138.840361 202.203091,136.131826 205.746473,133.712443 C209.668363,131.035534 213.699701,128.48513 217.86785,126.210322 C222.134045,123.883558 226.806111,122.478463 231.569383,121.432548 C233.309152,121.050778 233.41632,120.919757 233.468764,119.22777 C233.532609,117.158531 233.094816,115.233867 231.93421,113.352125" id="Fill-12" fill="#161616"></path>
                <path d="M193.686314,60.082776 L193.686314,59.6433133 C195.342792,59.6433133 197.006069,59.726144 198.655749,59.6249065 C201.375003,59.4569443 204.096522,59.1624353 206.516658,57.7336064 C209.496506,55.9734549 210.328145,53.7761416 209.041032,50.5779578 C205.841377,42.6285153 200.185329,37.1939036 191.98678,35.1208363 C186.892712,33.8323594 181.578838,33.1651124 176.330679,32.8798068 C172.322046,32.6612259 168.564944,31.9249533 164.959667,30.3028529 C162.258542,29.0857024 159.722838,27.5372292 158.256707,24.7578004 C156.448404,21.3249297 154.612908,17.9012624 152.949631,14.3947645 C150.209983,8.61502512 146.008736,6.27505898 140.073966,6.88248382 C136.958155,7.2023022 134.329543,8.7208643 131.71906,10.2256213 C127.037412,12.9245203 123.055971,16.5828744 119.013348,20.1491945 C115.825023,22.9585344 112.729606,25.896722 109.369062,28.4805784 C103.456952,33.0247604 96.840102,33.7702364 89.8629508,31.4417745 C85.9268315,30.1256873 82.038299,28.6669474 78.1021796,27.3531611 C74.1615282,26.0393748 70.0871801,25.7080521 66.0286943,26.48574 C62.6953428,27.1230759 59.8446588,28.8188036 57.7938885,31.6741605 C54.6826093,36.0020625 54.3245743,40.8522578 55.2989734,45.9095297 C55.8178976,48.5946236 56.9418557,50.9598991 59.0356809,52.8166864 C63.0737722,56.3945108 67.7984751,58.3801458 73.0149096,59.3879188 C77.2433488,60.2047211 81.4876502,60.6740949 85.7908688,60.7638281 C90.227784,60.8558622 94.6624332,61.152672 99.0993484,61.2286001 C105.192742,61.3321384 111.288402,61.3206342 117.384062,61.339041 C122.648083,61.3528461 127.914371,61.3735538 133.180658,61.3206342 C136.337258,61.2907231 139.493858,61.1181592 142.650458,61.0238243 C146.867567,60.8972775 151.08241,60.7684298 155.299519,60.671794 C160.427578,60.5521497 165.555637,60.4325054 170.685962,60.3818867 C173.092501,60.3565773 175.501306,60.5774591 177.905579,60.5337429 C180.080982,60.4923276 182.251853,60.1587041 184.427256,60.1034837 C187.511342,60.0252547 190.599961,60.082776 193.686314,60.082776 M184.216514,63.8262617 C180.903556,64.0126306 177.592865,64.2726269 174.279908,64.3531567 C172.555448,64.394572 170.82419,63.9850204 169.09973,64.0126306 C164.286652,64.0908596 159.478105,64.3232456 154.665027,64.4290848 C149.765838,64.5372248 144.864384,64.5602333 139.965196,64.6338606 C132.654936,64.7420006 125.344676,64.9030602 118.034417,64.9674841 C112.459947,65.0181028 106.883211,65.0135011 101.308742,64.9260687 C94.753075,64.8225304 88.1747476,64.9099628 81.6530714,64.348555 C74.9886344,63.7756429 68.2743445,62.9611414 62.1832167,59.7146397 C53.191552,54.9196649 49.5908072,46.8574806 51.4942846,36.986827 C52.3553815,32.5208739 54.4741332,28.7842908 58.1904462,26.1889301 C61.9384839,23.5705609 66.1487947,22.1486346 70.7330028,22.2153593 C75.5460814,22.2843849 80.0215194,23.7983453 84.4516365,25.6091155 C88.7118002,27.3485594 93.0648718,28.8579181 97.7646482,28.8395112 C101.406182,28.8257061 104.540121,27.3347543 107.334154,25.2041656 C110.159912,23.0482676 112.752267,20.5748521 115.464722,18.2670979 C119.045072,15.2230711 122.534781,12.0547984 126.269222,9.21784826 C129.527795,6.74213187 133.110411,4.67826793 137.080521,3.59226594 C142.811348,2.0230851 149.33529,3.56005402 153.613582,8.34582548 C155.927213,10.9342836 156.917475,14.1669802 158.113946,17.2777316 C160.873989,24.4517871 166.04057,28.1699634 173.473196,28.9407487 C179.018207,29.5159616 184.583613,29.9738311 190.085569,30.8389513 C193.724836,31.4095626 197.282526,32.6336156 200.4142,34.7158864 C205.084518,37.8220361 208.902803,41.7979078 211.554075,46.820667 C213.151636,49.8508886 213.455286,53.0329665 212.315466,56.3530954 C211.81467,57.8118354 210.960371,58.8610238 209.766166,59.7422499 C206.376163,62.2432757 202.446842,62.9105227 198.426879,63.1659172 C193.695378,63.4673288 188.954813,63.6260876 184.216514,63.8469693 C184.216514,63.8400668 184.216514,63.8331642 184.216514,63.8262617" id="Fill-14" fill="#000000"></path>
                <path d="M132.796342,149.101542 C134.619874,147.611997 136.420583,146.143867 138.346816,144.57342 C137.077876,142.719817 135.687975,140.685375 134.104081,138.365397 C133.209433,141.365902 131.404159,143.102911 129.231441,144.601974 C130.534616,146.246184 131.664338,147.671483 132.796342,149.101542 M135.432361,132.000329 C135.71308,132.319177 136.329292,132.780794 136.623704,133.406593 C137.358594,134.967522 137.940573,136.604593 138.597865,138.203594 C139.501643,140.409357 140.884697,142.113054 143.1624,142.864965 C143.306183,142.912554 143.436272,143.005353 143.577772,143.06246 C144.419929,143.405103 144.988214,143.942862 144.999815,144.977929 C145.013318,146.058206 144.285275,146.553135 143.532127,146.891019 C142.283727,147.452573 140.964577,147.840425 139.688789,148.332975 C136.744665,149.472738 135.117408,151.64519 135.051222,154.959784 C135.030682,156.030543 134.843536,156.825284 133.633934,156.970431 C132.488236,157.10844 131.808121,156.794351 131.534249,155.366672 C131.166804,153.436926 130.251614,151.880757 129.256546,150.262721 C128.295711,148.704171 126.994819,147.750006 125.49537,146.9743 C124.413575,146.415126 122.959771,146.048689 123.000852,144.556764 C123.041932,143.067219 124.50943,142.734094 125.632306,142.31055 C128.941593,141.058951 130.778818,138.572411 131.429264,135.029388 C131.707701,133.513669 133.565466,131.974155 135.432361,132.000329" id="Fill-16" fill="#161616"></path>
                <path d="M323.380994,171.209256 C322.48953,170.180194 321.745873,169.324246 320.916765,168.367315 C319.949088,169.170368 319.143075,169.838777 318.198492,170.622595 C319.362477,171.615591 320.337083,172.445091 321.337093,173.296231 C322.048417,172.572522 322.632718,171.973839 323.380994,171.209256 M330,171.182808 C329.600458,171.603569 329.150107,172.2287 328.563496,172.647057 C327.879886,173.132735 327.060016,173.409235 326.327907,173.829997 C324.861379,174.673923 323.817488,175.892928 323.371756,177.614442 C323.270138,177.999138 323.230877,178.487221 322.981452,178.722848 C322.447959,179.227761 321.842872,179.819231 321.180048,179.9683 C320.387892,180.146222 319.792042,179.554752 319.464094,178.706017 C319.092266,177.749086 318.637296,176.82822 318.170779,175.916972 C317.404027,174.419062 316.198472,173.534262 314.591065,173.20727 C314.073739,173.101479 313.528698,172.957218 313.087585,172.673505 C311.558701,171.697339 311.662628,170.093638 313.267726,169.235285 C314.489447,168.581302 315.713478,167.932128 316.930581,167.270932 C318.242373,166.559244 319.002196,165.409965 319.304739,163.928886 C319.487189,163.039277 319.690425,162.14005 320.732006,162.015024 C321.815158,161.882785 322.383293,162.642559 322.831335,163.54419 C323.182378,164.251069 323.607324,164.921882 323.939891,165.638378 C324.796713,167.477706 326.108505,168.732776 328.083121,169.057363 C329.145488,169.230476 329.711313,169.829159 330,171.182808" id="Fill-18" fill="#000000"></path>
                <path d="M153.969638,127.747477 C154.834859,128.476302 155.614012,129.132016 156.479234,129.860841 C157.145137,129.253106 157.731767,128.720767 158.413525,128.101608 C157.543773,127.174013 156.84163,126.424626 156.082862,125.615836 C155.31277,126.394924 154.689901,127.020937 153.969638,127.747477 M156.36825,120 C157.083983,120.685415 157.754416,121.044116 157.974119,121.585594 C158.959385,124.027957 160.553929,125.752919 162.966131,126.842729 C164.379478,127.480165 164.311528,128.85785 162.959336,129.591244 C162.433861,129.874549 161.829112,130.004778 161.287782,130.265236 C159.842726,130.968929 158.583398,131.818844 158.030744,133.511819 C157.831426,134.130978 157.083983,135.031157 156.644577,134.999171 C155.971879,134.948907 154.936783,134.318325 154.77597,133.733437 C154.141776,131.428157 152.492872,130.511985 150.467981,129.872264 C149.654854,129.614091 148.984421,129.093176 149.000276,128.085615 C149.013865,127.164874 149.697889,126.819882 150.393237,126.488598 C150.798668,126.294397 151.195039,126.072779 151.593676,125.867155 C153.18822,125.040087 154.402249,123.941138 154.873364,122.065385 C155.047767,121.377685 155.749911,120.824783 156.36825,120" id="Fill-20" fill="#161616"></path>
                <path d="M436,306.280303 C435.818091,307.234275 435.702958,308.208641 435.438153,309.139953 C434.512487,312.421074 433.197673,315.579832 431.125286,318.292194 C429.149611,320.879929 426.409455,322.382265 422.953175,321.915476 C419.994267,321.518931 418.453793,319.529412 419.176826,316.635772 C419.810055,314.097889 420.83013,311.639315 421.868626,309.223794 C422.547908,307.637617 423.491995,306.146611 424.452201,304.696392 C425.193655,303.572472 426.047939,302.482542 427.021961,301.548964 C428.56704,300.069287 430.498965,299.588902 432.534509,300.372927 C434.565448,301.154685 435.564799,302.811107 435.827301,304.902595 C435.884867,305.346725 435.836512,305.80445 435.836512,306.255377 C435.891775,306.264441 435.944736,306.271239 436,306.280303" id="Fill-22" fill="#FFFFFF"></path>
                <path d="M195,147.660509 C200.255929,141.945428 219.243342,128.414332 226.164517,128 C225.770831,129.254255 225.435972,130.44546 225.026449,131.611895 C223.211875,136.786543 223.191511,142.100803 224.16215,147.381285 C224.779829,150.734223 226.83876,153.474669 228.956517,156.165576 C232.705581,160.925892 237.597238,162.578717 243.466322,162.285982 C254.141085,161.754556 261.46952,156.188094 266.449417,147.183126 C267.831842,144.679119 268.325081,141.814823 268.422371,138.932513 C268.451784,138.040798 268.426896,137.146832 268.426896,136.228095 C270.768647,136.628917 277.707922,142.735812 282,148.133388 C280.527073,149.428176 279.079034,150.804029 277.526917,152.044773 C274.094611,154.787472 270.193956,156.775815 266.214111,158.554741 C262.109825,160.387711 257.946713,162.114845 253.704411,163.596533 C251.240482,164.458974 248.595548,164.893572 245.995865,165.258365 C241.522782,165.88887 237.01576,166.449569 232.515526,165.467782 C226.621554,164.184254 220.99004,162.186903 215.462603,159.748198 C209.301649,157.030269 203.774212,153.263 197.934542,150.013645 C196.857563,149.414665 195.977426,148.457648 195,147.660509" id="Fill-24" fill="#FFFFFF"></path>
                <path d="M228.74054,111.094612 C228.18654,111.606612 227.72854,111.702612 227.29854,111.214612 C227.22054,111.122612 227.26654,110.774612 227.37254,110.692612 C227.89454,110.276612 228.32854,110.446612 228.74054,111.094612" id="Fill-26" fill="#FFFFFF"></path>
                <path d="M246.231,108.572 C245.989,108.274 245.749,107.976 245.507,107.678 C245.579,107.594 245.651,107.51 245.723,107.428 C245.929,107.57 246.177,107.68 246.331,107.868 C246.447,108.01 246.443,108.25 246.493,108.448 L246.231,108.572 Z" id="Fill-28" fill="#FFFFFF"></path>
                <path d="M440.829733,150.214813 C437.497948,150.4633 434.184802,150.721627 430.871656,150.950432 C430.338105,150.987336 429.664758,151.090667 429.294301,150.812657 C428.723471,150.384571 428.129341,149.698158 428.003525,149.026506 C427.938288,148.672228 428.793368,147.828358 429.33158,147.705345 C431.367929,147.247736 433.436898,146.849173 435.512856,146.696637 C439.900095,146.371882 444.298983,146.199664 448.695541,146.007763 C449.620519,145.968399 450.552487,146.086492 451.477465,146.187363 C452.47234,146.298074 453.050161,146.930362 452.996572,147.983355 C452.949974,148.925635 452.327885,149.459512 451.470475,149.545622 C449.00542,149.796568 446.538035,150.022913 444.068321,150.202512 C442.989568,150.27878 441.903825,150.214813 440.829733,150.214813" id="Fill-30" fill="#000000"></path>
                <path d="M428.960489,134.673289 C427.67859,134.791209 426.396692,134.961285 425.112505,134.999835 C424.746248,135.008906 424.370835,134.641542 424,134.448789 C424.233489,134.033804 424.386859,133.346697 424.71649,133.249187 C426.389825,132.754833 428.08834,132.260479 429.814324,132.04505 C435.699611,131.308054 441.598632,130.664034 447.497653,130.035887 C449.150386,129.859008 449.949284,130.344291 449.997355,131.308054 C450.052293,132.364793 449.251107,133.081379 447.623554,133.219707 C443.301726,133.584804 438.970741,133.865996 434.648912,134.228824 C432.755823,134.387562 430.87189,134.664219 428.98338,134.886451 L428.960489,134.673289 Z" id="Fill-32" fill="#000000"></path>
                <path d="M436.835483,138.049371 C437.047313,138.049371 437.416306,137.922658 437.637247,138.075231 C438.104183,138.398478 438.662229,138.776031 438.878614,139.295812 C439.220275,140.118153 438.805727,140.842227 438.072295,141.124099 C437.511971,141.338735 436.892427,141.374938 436.297937,141.43183 C434.414248,141.610262 432.530558,141.762835 430.646869,141.923166 C430.346207,141.946439 429.981769,142.075738 429.753995,141.936096 C429.127617,141.548199 428.191467,141.160302 428.043414,140.562941 C427.772363,139.471659 428.831511,139.187201 429.528499,139.068246 C431.922402,138.659662 434.334527,138.388134 436.835483,138.049371" id="Fill-34" fill="#000000"></path>
                <line x1="544" y1="222" x2="499" y2="222" id="Fill-36" fill="#000000"></line>
            </g>
        </g>
    </g>
</svg>