<?xml version="1.0" encoding="UTF-8"?>
<svg width="274px" height="42px" viewBox="0 0 274 42" version="1.1" xmlns="http://www.w3.org/2000/svg" xmlns:xlink="http://www.w3.org/1999/xlink">
    <title>Logo_white</title>
    <g id="Symbols" stroke="none" stroke-width="1" fill="none" fill-rule="evenodd">
        <g id="1---Nav/Primary/Button" transform="translate(-204.000000, -100.000000)" fill="#FFFFFF">
            <g id="Logo_white" transform="translate(204.000000, 100.000000)">
                <path d="M116,33 L119.47087,13.7013466 L122.531448,13 L126,30.7140109 L123.34701,31.3215774 L122.76132,27.6809875 L119.367718,28.457278 L118.805208,32.3575665 L116,33 M121.057951,16.6381853 L119.692629,25.8310356 L122.422887,25.2074383 L121.057951,16.6381853" id="Fill-1"></path>
                <polyline id="Fill-2" points="128 31 128 12.0871804 130.673792 11.4662688 134.281814 21.8595752 134.300117 10.626236 137 10 137 28.915277 134.45355 29.5034229 130.671066 18.7845065 130.673792 30.3790884 128 31"></polyline>
                <path d="M141,28 L141,9.92085145 L145.024812,9.08926621 C145.307292,9.03053844 145.59603,9 145.886438,9 C147.833335,9 149.857425,10.3601352 150.623916,13.6238332 C151.359949,16.7489336 151.663708,25.794968 145.133298,27.1445321 L141,28 M145.379059,11.5448701 C145.262229,11.5448701 145.145815,11.5573987 145.030237,11.5812813 L143.873614,11.8193245 L143.859845,24.9164005 L145.071962,24.6654372 C148.625697,23.930557 148.17423,16.3515424 147.683542,14.2592677 C147.22373,12.3087226 146.294927,11.5448701 145.379059,11.5448701" id="Fill-3"></path>
                <path d="M141.455735,42 C140.69249,42 139.986367,41.7722628 139.36937,41.4009797 L137.902432,40.5266542 L139.003952,39.2587348 C139.271736,38.9518579 139.583273,38.7691631 139.937753,38.7102292 C139.998115,38.6997053 140.056453,38.6946539 140.112764,38.6946539 C140.342062,38.6946539 140.542596,38.7763193 140.746776,38.8958708 L140.757715,38.9042899 L140.768248,38.912709 C140.974048,39.0335234 141.206587,39.1067697 141.455735,39.1067697 C142.235185,39.1067697 142.865551,38.4517623 142.865551,37.6443688 C142.865551,36.8373962 142.235185,36.179442 141.455735,36.179442 C141.444797,36.179442 141.412388,36.1853354 141.36904,36.1937545 L137.383069,37.1047032 C137.342557,37.1131223 137.315414,37.1215415 137.315414,37.1215415 L137.315414,37.1185948 L116.008154,42 L116,40.2766063 C115.997216,39.8573342 116.111054,39.5003636 116.332655,39.2052734 C116.527517,38.9493322 116.771399,38.836516 117.060655,38.7691631 L117.071593,38.7691631 L150.991843,31 L151,32.7267613 C151.002782,33.1456125 150.894615,33.5000574 150.669773,33.7922008 C150.47248,34.0510887 150.228598,34.163484 149.941774,34.2308369 L149.928405,34.2308369 L145.011469,35.3585779 C145.409297,36.0249512 145.647507,36.8037197 145.647507,37.6443688 C145.647507,40.0488692 143.772209,42 141.455735,42" id="Fill-4"></path>
                <path d="M116.008155,12 L116,10.2732387 C115.997217,9.85438751 116.108211,9.4999426 116.33263,9.20779917 C116.527477,8.94891125 116.771339,8.83651602 117.060572,8.76916306 L117.071509,8.76916306 L121.990889,7.64142207 C121.593093,6.97504879 121.352066,6.19628028 121.352066,5.35521029 C121.352066,2.95113084 123.230051,1 125.543504,1 C126.309119,1 127.015187,1.22773717 127.632135,1.59859936 L129.098551,2.47334583 L127.997523,3.74126516 C127.726925,4.0477211 127.418248,4.23083694 127.063797,4.29229651 C127.00587,4.30197849 126.949562,4.30660901 126.894876,4.30660901 C126.662356,4.30660901 126.457786,4.2245226 126.249572,4.1041292 L126.244305,4.09571008 L126.233368,4.08729096 C126.027989,3.9664766 125.795064,3.89323026 125.543504,3.89323026 C124.766952,3.89323026 124.136231,4.54823773 124.136231,5.35521029 C124.136231,6.16218285 124.766952,6.82055796 125.543504,6.82055796 C125.556872,6.82055796 125.586849,6.81466457 125.632624,6.80624546 L129.618278,5.89529677 C129.658786,5.88687765 129.683091,5.87845854 129.683091,5.87845854 L129.683091,5.88140523 L150.989063,1 L151,2.72339367 C151,3.14224484 150.889006,3.49963645 150.664588,3.79472657 C150.469741,4.05066779 150.228714,4.16306303 149.939076,4.23083694 L149.925709,4.23083694 L116.008155,12" id="Fill-5"></path>
                <path d="M243.008921,42 L232.988263,42 L232.988263,39.6419656 C232.988263,39.0224957 233.133455,38.5115342 233.426252,38.1082714 C233.713821,37.7082477 234.003803,37.394464 234.2966,37.177852 C234.47638,37.0673191 234.613528,36.940186 234.704826,36.7911894 C234.796527,36.6450269 234.841974,36.3911657 234.841974,36.0259618 L234.841974,7.49917049 C234.41766,6.97444304 233.82925,6.64689327 233.181718,6.64689327 C232.534186,6.64689327 231.945777,6.97444304 231.521463,7.49917049 C230.965229,8.18868502 230.197038,8.61583584 229.348007,8.61583584 L227,8.61583584 L227,1 L229.348007,1 C230.197038,1 230.965229,1.42472152 231.521463,2.11423606 C231.945777,2.6389635 232.534186,2.9636791 233.181718,2.9636791 C233.82925,2.9636791 234.41766,2.6389635 234.841974,2.11423606 L234.841974,1 L241.158026,1 L241.158026,2.11423606 C241.58234,2.6389635 242.168336,2.96610839 242.815466,2.96610839 C243.465814,2.96610839 244.051408,2.6389635 244.475722,2.11423606 C245.031956,1.4275557 245.800146,1 246.649177,1 L249,1 L249,8.61583584 L246.649177,8.61583584 C245.800146,8.61583584 245.031956,8.18868502 244.475722,7.49917049 C244.051408,6.97444304 243.465814,6.64972745 242.815466,6.64972745 C242.168336,6.64972745 241.58234,6.97444304 241.158026,7.49917049 L241.158026,36.0259618 C241.193016,36.3911657 241.257367,36.6450269 241.348665,36.7911894 C241.43755,36.940186 241.574296,37.0673191 241.756892,37.177852 C242.047276,37.394464 242.326801,37.7082477 242.600695,38.1082714 C242.872176,38.5115342 243.008921,39.0224957 243.008921,39.6419656 L243.008921,42" id="Fill-6"></path>
                <path d="M10.099862,42 L0,42 L0,39.6421053 C0,39.0226721 0.145579964,38.5117409 0.436336623,38.108502 C0.728706357,37.705668 1.01946302,37.3947368 1.31062294,37.1757085 C1.45458983,37.0295547 1.58403905,36.8834008 1.69292157,36.7376518 C1.80220736,36.591498 1.85584209,36.337247 1.85584209,35.9696356 L1.85584209,7.03036437 C1.85584209,6.5194332 1.63928685,6.13522267 1.20133715,5.87854251 C0.836379072,5.69716599 0.545622413,5.41336032 0.327454102,5.0291498 C0.110495596,4.64534413 0,4.0340081 0,3.19311741 L0,1 L17.5804945,1 C17.8712512,1 18.1813647,1.14574899 18.5084156,1.43805668 C18.8358697,1.73279352 19,2.11659919 19,2.58987854 L19,8.56396761 L16.815494,8.56396761 C16.0517033,8.56396761 15.4593017,8.38259109 15.0403056,8.01740891 C14.6229226,7.65263158 14.3208745,7.30364372 14.1406134,6.97368421 C14.0313276,6.79230769 13.8954261,6.62753036 13.7312958,6.48137652 C13.5667622,6.33562753 13.2852807,6.26234818 12.8840284,6.26234818 L9.06305847,6.26234818 C8.80859599,6.26234818 8.60776823,6.3437247 8.46218826,6.50850202 C8.31701157,6.67327935 8.24401995,6.86558704 8.24401995,7.08461538 L8.24401995,17.3878543 C8.24401995,17.7178138 8.30733312,17.937247 8.43516927,18.0477733 C8.56179561,18.1562753 8.77068874,18.2129555 9.06305847,18.2129555 L14.9044041,18.2129555 C15.1963706,18.2129555 15.3959885,18.340081 15.5048711,18.594332 C15.6141569,18.8510121 15.6694046,19.1242915 15.6694046,19.4161943 L15.6694046,22.8157895 C15.6694046,23.0348178 15.596413,23.2267206 15.4512363,23.391498 C15.3044466,23.5566802 15.139913,23.6376518 14.9596519,23.6376518 L9.00902048,23.6376518 C8.82593654,23.6376518 8.65333758,23.7024291 8.48920726,23.8295547 C8.32628675,23.957085 8.24401995,24.1489879 8.24401995,24.405668 L8.24401995,36.0234818 C8.24401995,36.3534413 8.28999257,36.591498 8.38032474,36.7376518 C8.47186671,36.8834008 8.60776823,37.0295547 8.79085217,37.1757085 C9.0820121,37.3947368 9.37155895,37.705668 9.66352542,38.108502 C9.95468534,38.5117409 10.099862,39.0226721 10.099862,39.6421053 L10.099862,42" id="Fill-7"></path>
                <path d="M31.9733999,42 C30.6053364,42 29.321984,41.8351718 28.120478,41.5079454 C26.9201997,41.1778841 25.8680635,40.6663902 24.9632509,39.971439 C24.0584384,39.2789177 23.3381896,38.4077988 22.8025045,37.366182 C22.2664102,36.3245651 22,35.1100204 22,33.7225479 L22,8.28028696 C22,6.89240946 22.2664102,5.67543487 22.8025045,4.63381803 C23.3381896,3.59220118 24.0584384,2.7348517 24.9632509,2.05852972 C25.8680635,1.38220774 26.9201997,0.870713928 28.120478,0.522023373 C29.321984,0.175762718 30.6053364,0 31.9733999,0 C33.3373711,0 34.6305451,0.175762718 35.8496481,0.522023373 C37.068751,0.870713928 38.1319365,1.38220774 39.0367491,2.05852972 C39.938697,2.7348517 40.6605827,3.59220118 41.1962678,4.63381803 C41.7319529,5.67543487 42,6.89240946 42,8.28028696 L42,33.7225479 C42,35.1100204 41.7319529,36.3245651 41.1962678,37.366182 C40.6605827,38.4077988 39.938697,39.2789177 39.0367491,39.971439 C38.1319365,40.6663902 37.068751,41.1778841 35.8496481,41.5079454 C34.6305451,41.8351718 33.3373711,42 31.9733999,42 M31.9733999,5.32107456 C30.9756916,5.32107456 30.1433131,5.56689937 29.4791292,6.05935897 C28.8133082,6.55181857 28.4826486,7.51203379 28.4826486,8.93757473 L28.4826486,33.0624253 C28.4826486,34.4879662 28.8133082,35.4562811 29.4791292,35.9702048 C30.1433131,36.4816986 30.9756916,36.7360281 31.9733999,36.7360281 C33.0067114,36.7360281 33.8538222,36.4545647 34.5212801,35.8863733 C35.1854641,35.3210167 35.5185791,34.3065337 35.5185791,32.8433293 L35.5185791,8.93757473 C35.5185791,7.51203379 35.1854641,6.55181857 34.5212801,6.05935897 C33.8538222,5.56689937 33.0067114,5.32107456 31.9733999,5.32107456" id="Fill-8"></path>
                <path d="M65,42 L59.7821124,42 C58.8503468,42 58.1498338,41.7080972 57.6853417,41.1210526 C57.2180682,40.5396761 56.9844314,39.8449393 56.9844314,39.0388664 L56.9844314,26.8720648 C56.9844314,25.8121457 56.7774166,25.0279352 56.3661682,24.5137652 C55.9549198,24.002834 55.1904349,23.745749 54.0810577,23.745749 L51.8221717,23.745749 C51.3552955,23.745749 51.1216587,24.002834 51.1216587,24.5137652 L51.1216587,36.0234818 C51.1216587,36.391498 51.1665583,36.6453441 51.2567548,36.791498 C51.3473486,36.9404858 51.4800607,37.0676113 51.6604537,37.1757085 C51.9469369,37.3947368 52.2338174,37.705668 52.5203005,38.108502 C52.8067837,38.5117409 52.950224,39.0226721 52.950224,39.6421053 L52.950224,42 L43,42 L43,39.6421053 C43,39.0226721 43.1434403,38.5117409 43.4299234,38.108502 C43.7168039,37.705668 44.0032871,37.3947368 44.2897703,37.1757085 C44.4332105,37.0676113 44.5607571,36.9404858 44.6668473,36.791498 C44.7757188,36.6453441 44.8285652,36.4101215 44.8285652,36.0801619 L44.8285652,7.03036437 C44.8285652,6.73846154 44.8285652,6.50040486 44.8285652,6.31659919 C44.8285652,6.13522267 44.7383687,6.00566802 44.5607571,5.93522267 C44.2714926,5.751417 43.9579902,5.45910931 43.6182633,5.0562753 C43.2761523,4.6534413 43.1088716,4.08825911 43.1088716,3.35789474 L43.1088716,1 L54.4577373,1 C55.7820763,1 56.9951597,1.22955466 58.0886433,1.68663968 C59.1821269,2.1437247 60.1138925,2.77368421 60.8859269,3.57692308 C61.6559746,4.38016194 62.247616,5.34048583 62.6616457,6.45425101 C63.0732914,7.56842105 63.2803063,8.80161943 63.2803063,10.1538462 L63.2803063,15.1975709 C63.2803063,16.3659919 63.118191,17.4368421 62.7943578,18.4020243 C62.4733059,19.3728745 61.953186,20.1651822 61.236382,20.7874494 C60.8036772,21.1526316 60.8223523,21.5174089 61.2896258,21.8854251 C62.1121225,22.5044534 62.6509175,23.3647773 62.9032293,24.459919 C63.1527597,25.5550607 63.2803063,26.7801619 63.2803063,28.1323887 L63.2803063,35.6421053 C63.2803063,35.9696356 63.3410996,36.2157895 63.4686461,36.3805668 C63.5934114,36.5453441 63.7444011,36.6834008 63.9251914,36.791498 C64.2116746,36.9753036 64.4639864,37.2404858 64.6789481,37.5866397 C64.8939098,37.9356275 65,38.4194332 65,39.0388664 L65,42 M51.7693252,6.31659919 C51.3366204,6.31659919 51.1216587,6.57368421 51.1216587,7.08461538 L51.1216587,17.882996 C51.1216587,18.1748988 51.1852333,18.3753036 51.3099986,18.4862348 C51.4347638,18.594332 51.5702572,18.6481781 51.7133001,18.6481781 L54.4577373,18.6481781 C55.569896,18.6481781 56.2946467,18.3481781 56.6367577,17.7449393 C56.9764846,17.1421053 57.1465467,16.2927126 57.1465467,15.1975709 L57.1465467,9.77004049 C57.1465467,8.63967611 56.8334417,7.77935223 56.2040529,7.19554656 C55.5778428,6.61133603 54.8161393,6.31659919 53.9189423,6.31659919 L51.7693252,6.31659919" id="Fill-9"></path>
                <path d="M77.1376982,42 C75.8450128,42 74.5907928,41.7971054 73.3713555,41.3965808 C72.1523274,40.9936264 71.0728389,40.4173408 70.1296164,39.6681291 C69.1896675,38.9189174 68.4322251,37.9963745 67.8581074,36.9009054 C67.2868542,35.8026015 67,34.5609349 67,33.1730708 L67,8.8269292 C67,7.43906508 67.2598465,6.19739849 67.776266,5.09909458 C68.2930946,4.00362553 69.0034783,3.08108264 69.9082353,2.32903605 C70.8129923,1.58265917 71.8654731,1.0063736 73.0652685,0.603419183 C74.2654731,0.202894638 75.5495652,0 76.9163171,0 C78.2830691,0 79.5761637,0.202894638 80.7951918,0.603419183 C82.0142199,1.0063736 83.0855243,1.58265917 84.0070588,2.32903605 C84.9306394,3.08108264 85.660665,4.00362553 86.1963171,5.09909458 C86.7319693,6.19739849 87,7.43906508 87,8.8269292 L87,13.1035108 L83.2332481,13.1035108 C82.6047059,13.1035108 81.9569309,12.8763174 81.2923785,12.4190957 C80.6282353,11.9622791 80.2975959,11.2045628 80.2975959,10.1443269 L80.2975959,9.48704548 C80.2975959,8.06151829 79.991509,7.00897704 79.3817903,6.33266158 C78.7724808,5.65634612 77.9495652,5.31818839 76.9163171,5.31818839 C75.8830691,5.31818839 75.0523785,5.65634612 74.4238363,6.33266158 C73.7952941,7.00897704 73.481023,8.06151829 73.481023,9.48704548 L73.481023,32.5129545 C73.481023,33.9384817 73.7952941,34.9800885 74.4238363,35.6373699 C75.0523785,36.2974862 75.8830691,36.6247095 76.9163171,36.6247095 C77.9139642,36.6247095 78.7642967,36.2974862 79.4669054,35.6373699 C80.1662404,34.9800885 80.5161125,33.9384817 80.5161125,32.5129545 L80.5161125,26.4832175 C80.5161125,25.7530398 80.2210742,25.3120173 79.6305882,25.1658197 C79.1141688,25.0576903 78.7532481,24.8033633 78.5510997,24.4004088 C78.3485422,23.9974544 78.247468,23.2859058 78.247468,22.2604981 L78.247468,20.1776895 L85.2805115,20.1776895 C85.8353964,20.1776895 86.2589258,20.3886837 86.5543734,20.8078373 C86.8494118,21.2273959 87,21.695147 87,22.2062309 L87,41.0126604 C87,41.4156148 86.7949872,41.6156746 86.3902813,41.6156746 L85.0047059,41.6156746 C84.8569821,41.6156746 84.728491,41.569912 84.6163683,41.4779817 C84.5042455,41.3884812 84.4305882,41.3046505 84.3949872,41.2317542 C84.0643478,40.609301 83.7472123,40.3011118 83.4546292,40.3011118 C83.1567263,40.3011118 82.861688,40.3902072 82.5662404,40.5744728 C81.8284399,40.9774272 81.0165729,41.3127501 80.1310486,41.588541 C79.2426598,41.8619021 78.247468,42 77.1376982,42" id="Fill-10"></path>
                <path d="M106.622666,42 L89,42 L89,39.8068826 C89,39.0036437 89.0968408,38.3927126 89.2905223,37.9704453 C89.4845959,37.551417 89.7566909,37.248583 90.1130806,37.0676113 C90.2883349,36.994332 90.4482986,36.8481781 90.5898351,36.6267206 C90.7309796,36.4101215 90.8015518,36.1724696 90.8015518,35.9153846 L90.8015518,7.1388664 C90.8015518,6.55465587 90.5557252,6.13522267 90.0605435,5.87854251 C89.7410082,5.69716599 89.4845959,5.41336032 89.2905223,5.0291498 C89.0968408,4.64534413 89,4.08825911 89,3.35789474 L89,1 L106.302738,1 C106.690493,1 107.070407,1.15668016 107.444832,1.46518219 C107.81416,1.77611336 108,2.07894737 108,2.3708502 L108,8.56396761 L105.878521,8.56396761 C105.134768,8.56396761 104.550979,8.38259109 104.126762,8.01740891 C103.6998,7.65263158 103.401044,7.30364372 103.223045,6.97368421 C103.045047,6.53562753 102.675719,6.31659919 102.107612,6.31659919 L97.702338,6.31659919 C97.5243392,6.31659919 97.36712,6.40040486 97.2259755,6.56518219 C97.084439,6.72753036 97.0138668,6.90080972 97.0138668,7.08461538 L97.0138668,17.4449393 C97.0138668,17.9558704 97.2600854,18.2129555 97.7548751,18.2129555 L103.914653,18.2129555 C104.089907,18.2129555 104.275748,18.2748988 104.472174,18.4020243 C104.666247,18.5319838 104.763088,18.740081 104.763088,19.0348178 L104.763088,22.8696356 C104.763088,23.3809717 104.498442,23.6376518 103.966798,23.6376518 L97.7548751,23.6376518 C97.2600854,23.6376518 97.0138668,23.8947368 97.0138668,24.405668 L97.0138668,36.0234818 C97.0138668,36.2805668 97.1001217,36.4834008 97.2781206,36.6267206 C97.4537669,36.7753036 97.6317657,36.8481781 97.8097646,36.8481781 L102.427148,36.8481781 C102.780401,36.8481781 103.010937,36.6267206 103.118363,36.188664 C103.29401,35.3854251 103.639421,34.8392713 104.15303,34.5441296 C104.666247,34.2522267 105.328842,34.1060729 106.143167,34.1060729 L108,34.1060729 L108,40.6291498 C108,41.0319838 107.866305,41.3619433 107.602051,41.6161943 C107.337405,41.8728745 107.010029,42 106.622666,42" id="Fill-11"></path>
                <path d="M166.945823,42 C165.590386,42 164.308402,41.834949 163.099466,41.5072802 C161.890124,41.1767727 160.838646,40.6726981 159.941379,39.9954619 C159.044113,39.3182257 158.328247,38.4568786 157.797029,37.4166924 C157.265812,36.3712344 157,35.1550479 157,33.7652943 L157,28.5481423 L160.407666,28.5481423 C161.397054,28.5481423 162.136863,28.8514792 162.63318,29.4557199 C163.12625,30.0595551 163.375829,30.7830218 163.375829,31.6228758 L163.375829,34.369535 C163.375829,34.9543102 163.730921,35.4664954 164.446381,35.9052796 C165.159406,36.3440638 165.991742,36.5634559 166.945823,36.5634559 C167.420226,36.5634559 167.881237,36.4932991 168.320334,36.3440638 C168.75943,36.1976672 169.144147,36.0054457 169.472049,35.7673992 C169.802792,35.5313803 170.060487,35.2742739 170.241889,35.0005407 C170.423696,34.7243743 170.518658,34.4615905 170.518658,34.2040785 L170.518658,28.2744091 C170.518658,27.0663332 170.196031,26.0695389 169.556054,25.2811872 C168.913642,24.4956743 168.108902,23.7997837 167.138182,23.195543 C166.165026,22.5913023 165.1241,22.0146377 164.007284,21.4671713 C162.887629,20.9172717 161.844267,20.2509849 160.873547,19.4626332 C159.903232,18.6746872 159.098087,17.7237178 158.458515,16.6076974 C157.816103,15.491677 157.496317,14.0723196 157.496317,12.3520586 L157.550291,8.29188552 C157.550291,6.8262977 157.788913,5.57199135 158.266157,4.52896648 C158.74056,3.48634713 159.399205,2.625 160.242092,1.94776379 C161.085384,1.27052758 162.074772,0.777402286 163.210255,0.465954735 C164.346144,0.156940368 165.590386,0 166.945823,0 C168.298419,0 169.556054,0.173161594 170.708175,0.519890314 C171.863137,0.869457748 172.871599,1.38123745 173.730719,2.05847366 C174.590244,2.73570987 175.259846,3.59462382 175.736684,4.64008188 C176.211087,5.68026804 176.45255,6.89929322 176.45255,8.29188552 L176.45255,13.4518577 L173.207617,13.4518577 C172.294118,13.4518577 171.524278,13.0860691 170.900939,12.3520586 C170.277195,11.6208868 169.968366,10.8163139 169.968366,9.93590684 L169.968366,8.2347057 C169.968366,7.46541403 169.637624,6.87212266 168.978979,6.44955971 C168.320334,6.02983547 167.620701,5.81855399 166.891443,5.81855399 C166.121604,5.81855399 165.452002,6.03794608 164.885478,6.47673026 C164.316519,6.91835316 164.034474,7.41107292 164.034474,7.96137803 L164.034474,12.7908427 C164.034474,13.5252588 164.35426,14.1915457 164.994237,14.7953808 C165.63665,15.3996215 166.433679,16.0038622 167.38492,16.6076974 C168.336566,17.2119381 169.382769,17.8429438 170.518658,18.50112 C171.651705,19.162135 172.695473,19.9123668 173.649555,20.7522208 C174.600795,21.594508 175.397825,22.5560212 176.037802,23.6343272 C176.680214,24.7150664 177,25.9884327 177,27.4511818 L177,33.7652943 C177,35.1550479 176.726072,36.3712344 176.175781,37.4166924 C175.62833,38.4568786 174.893797,39.3182257 173.977457,39.9954619 C173.061116,40.6726981 172.001522,41.1767727 170.79218,41.5072802 C169.583244,41.834949 168.298419,42 166.945823,42" id="Fill-12"></path>
                <path d="M213,42 L203.033433,42 L203.033433,39.6421053 C203.033433,39.0226721 203.174328,38.5117409 203.461294,38.108502 C203.751045,37.705668 204.038408,37.3947368 204.325373,37.1757085 C204.50607,37.0676113 204.639005,36.9404858 204.729353,36.791498 C204.817313,36.6453441 204.862289,36.391498 204.862289,36.0234818 L204.862289,15.3623482 C204.862289,15.3246964 204.854328,15.2894737 204.83602,15.2518219 C204.83204,15.2445344 204.827662,15.2412955 204.82209,15.2412955 C204.799403,15.2412955 204.760398,15.2991903 204.703085,15.4165992 C203.589055,17.8639676 202.581294,20.0732794 201.685373,22.0473684 C201.289353,22.888664 200.903682,23.7190283 200.526368,24.5408907 C200.148657,25.3631579 199.808358,26.1149798 199.502687,26.7882591 C199.197015,27.4672065 198.936318,28.0404858 198.720995,28.5161943 C198.505672,28.9923077 198.378308,29.2842105 198.343682,29.3927126 C198.237413,29.6493927 197.947264,29.8412955 197.48199,29.9684211 C197.014328,30.0955466 196.52,30.1607287 196.001393,30.1607287 C195.477612,30.1607287 194.983284,30.1064777 194.51801,29.9955466 C194.04995,29.8874494 193.762985,29.7036437 193.656716,29.4465587 C193.581891,29.3384615 193.448955,29.0546559 193.252338,28.5975709 C193.055721,28.1404858 192.792239,27.5862348 192.470647,26.9263158 C192.146269,26.2692308 191.79801,25.5388664 191.41791,24.7356275 C191.042985,23.9299595 190.673632,23.1076923 190.314627,22.2668016 C189.41592,20.3303644 188.429652,18.1748988 187.353035,15.8004049 C187.315622,15.7275304 187.270647,15.6898785 187.217313,15.6898785 C187.161592,15.6898785 187.134925,15.7817814 187.134925,15.962753 L187.134925,35.9696356 C187.134925,36.337247 187.191045,36.591498 187.297313,36.7376518 C187.40597,36.8834008 187.531343,37.0295547 187.674627,37.1757085 C187.96199,37.3947368 188.248955,37.705668 188.53592,38.108502 C188.825672,38.5117409 188.966965,39.0226721 188.966965,39.6421053 L188.966965,42 L179,42 L179,39.6421053 C179,39.0226721 179.143682,38.5117409 179.430647,38.108502 C179.71801,37.705668 180.004975,37.3947368 180.29194,37.1757085 C180.435622,37.0676113 180.552637,36.9404858 180.642985,36.791498 C180.730547,36.6453441 180.794627,36.4267206 180.831642,36.134413 L180.831642,6.37327935 C180.473035,6.30040486 180.166965,6.13522267 179.914627,5.87854251 C179.664677,5.69716599 179.449353,5.40242915 179.268657,5.00242915 C179.090348,4.59919028 179,4.08825911 179,3.4659919 L179,1 L186.326567,1 C186.829254,1 187.206567,1.27287449 187.459303,1.82186235 L195.97194,20.8983806 L204.325373,1.82186235 C204.466269,1.49473684 204.737313,1.27287449 205.133731,1.16477733 C205.526965,1.05384615 205.867264,1 206.157015,1 L213,1 L213,3.4659919 C213,4.08825911 212.898905,4.59919028 212.702687,5.00242915 C212.505672,5.40242915 212.301095,5.69716599 212.082985,5.87854251 C211.79602,6.13522267 211.492736,6.30040486 211.168358,6.37327935 L211.168358,36.0234818 C211.168358,36.391498 211.221692,36.6453441 211.32796,36.791498 C211.439801,36.9404858 211.564776,37.0676113 211.70806,37.1757085 C211.995423,37.3947368 212.28,37.705668 212.569751,38.108502 C212.856318,38.5117409 213,39.0226721 213,39.6421053 L213,42" id="Fill-13"></path>
                <path d="M225,42 L215,42 L215,39.6959514 C215,39.0769231 215.143356,38.565587 215.432452,38.162753 C215.716385,37.7623482 216.0027,37.448583 216.291796,37.2295547 C216.435152,37.0862348 216.549122,36.9404858 216.639266,36.791498 C216.72941,36.6453441 216.790565,36.4267206 216.827496,36.134413 L216.827496,7.03036437 C216.827496,6.66558704 216.77468,6.40850202 216.665872,6.26234818 C216.559844,6.11619433 216.435152,5.97044534 216.291796,5.8242915 C216.0027,5.60526316 215.716385,5.29433198 215.432452,4.89149798 C215.143356,4.49109312 215,3.98016194 215,3.35789474 L215,1 L225,1 L225,3.35789474 C225,3.98016194 224.857041,4.49109312 224.567945,4.89149798 C224.284012,5.29433198 223.997697,5.60526316 223.708204,5.8242915 C223.530697,5.97044534 223.395282,6.11619433 223.307918,6.26234818 C223.214995,6.40850202 223.172504,6.66558704 223.172504,7.03036437 L223.172504,36.0234818 C223.172504,36.391498 223.214995,36.6453441 223.307918,36.791498 C223.395282,36.9404858 223.530697,37.0862348 223.708204,37.2295547 C223.997697,37.448583 224.284012,37.7623482 224.567945,38.162753 C224.857041,38.565587 225,39.0769231 225,39.6959514 L225,42" id="Fill-14"></path>
                <path d="M274,42 L264.074219,42 L264.074219,39.6421053 C264.074219,39.0226721 264.216506,38.5117409 264.50108,38.108502 C264.785259,37.705668 265.069438,37.3947368 265.354012,37.1757085 C265.532954,37.0295547 265.664599,36.894332 265.75407,36.7643725 C265.843541,36.637247 265.888474,36.4267206 265.888474,36.134413 L265.888474,24.0757085 C265.888474,23.5647773 265.62006,23.3105263 265.085598,23.3105263 L259.856856,23.3105263 C259.645988,23.3105263 259.459163,23.3809717 259.298746,23.5267206 C259.137934,23.6757085 259.059105,23.8566802 259.059105,24.0757085 L259.059105,36.0234818 C259.059105,36.3534413 259.111526,36.591498 259.217157,36.7376518 C259.324759,36.8834008 259.448521,37.0295547 259.590808,37.1757085 C259.874987,37.3947368 260.159561,37.705668 260.446499,38.108502 C260.728313,38.5117409 260.872965,39.0226721 260.872965,39.6421053 L260.872965,42 L251,42 L251,39.6421053 C251,39.0226721 251.142287,38.5117409 251.426466,38.108502 C251.71104,37.705668 251.995219,37.3947368 252.279792,37.1757085 C252.458735,37.0295547 252.592744,36.8834008 252.682215,36.7376518 C252.769322,36.591498 252.814254,36.3534413 252.814254,36.0234818 L252.814254,7.03036437 C252.814254,6.66558704 252.769322,6.40850202 252.682215,6.26234818 C252.592744,6.11619433 252.458735,5.97044534 252.279792,5.8242915 C251.463516,5.27530364 251.034291,4.47206478 251,3.41214575 L251,1 L260.872965,1 L260.872965,3.41214575 C260.872965,3.85020243 260.757086,4.29919028 260.525328,4.7562753 C260.293964,5.21336032 259.982983,5.56761134 259.590808,5.8242915 C259.448521,5.97044534 259.332642,6.10850202 259.243171,6.23522267 C259.156459,6.36518219 259.093395,6.57368421 259.059105,6.86558704 L259.059105,17.1688259 C259.059105,17.4635628 259.145817,17.6720648 259.324759,17.7991903 C259.501337,17.9287449 259.680279,17.9910931 259.856856,17.9910931 L265.140779,17.9910931 C265.390667,17.9910931 265.575128,17.9101215 265.701649,17.7449393 C265.82541,17.5801619 265.888474,17.3878543 265.888474,17.1688259 L265.888474,7.03036437 C265.888474,6.66558704 265.843541,6.40850202 265.75407,6.26234818 C265.664599,6.11619433 265.532954,5.97044534 265.354012,5.8242915 C264.572026,5.24008097 264.14556,4.43684211 264.074219,3.41214575 L264.074219,1 L274,1 L274,3.41214575 C274,4.36396761 273.5893,5.16720648 272.770658,5.8242915 C272.628372,5.93522267 272.50461,6.04331984 272.399373,6.151417 C272.291377,6.26234818 272.220036,6.42753036 272.18614,6.6465587 L272.18614,35.9696356 C272.18614,36.337247 272.238561,36.591498 272.343798,36.7376518 C272.451794,36.8834008 272.594081,37.0295547 272.770658,37.1757085 C273.057597,37.3947368 273.331134,37.705668 273.599942,38.108502 C273.865596,38.5117409 274,39.0226721 274,39.6421053 L274,42" id="Fill-15"></path>
            </g>
        </g>
    </g>
</svg>