<svg xmlns="http://www.w3.org/2000/svg" xml:space="preserve" viewBox="0 0 1602 319"><path fill="#fff" d="M1602 41.9v-7.1c-71.3 5.3-100.8 22.5-154.3 33.2-7.6 1.2-17.8 1.8-25.5 1.2-66.2-9.5-79-35.5-169.2-34.2l-25.4.3c-34.6 1.3-62.7-3.4-93.2-7-51-6.5-61.1-34.3-124.8-25.5-56 7.7-76.4 29-150 29.3-9.9-.1-19.9-.1-29.9.2-10 .3-19.9.8-29.9 1.8a284.2 284.2 0 0 0-121.4 23.8 98.4 98.4 0 0 1-53.5 6.5c-61.1-10.1-94.3-27.8-173.4-28.9-9.1.3-18.1.2-27 .1-13.4-.2-26.6-.7-39.6-.9-86.1.7-106.5-21.2-162.6-32.5a102 102 0 0 0-35.7.6C130.5 15.3 91.7 39 0 34.8v7.1a374.4 374.4 0 0 0 168.7-27.2c17.8-5.9 51-7.7 71.3-.6 38.2 13 71.3 29 144.7 28.4 13 .3 26.2 1 39.6 1.4 8.9.2 17.9.2 27-.2 84.2-2.4 109.7 19.5 170.9 27.8 5.1.6 12.7.6 17.8 0 66.2-6.5 76.4-32 159.6-30.1a603.7 603.7 0 0 0 59.8 1.3c71-2 93.9-21 139.8-32.2 20.4-4.7 48.4-3.6 66.2.6 48.4 11.8 79 32.6 162 30.9l25.4.1c85.2-1.4 103 22.3 164.1 31.8 56 8.3 79-17.8 127.4-24.3 12.9-1.7 43.6-7.7 57.7-7.7zm0 30.5v-7.3c-58.6 1.8-93 17.3-131.2 27.5-63.7 18.5-99.4-13.2-152.9-21.5a537.2 537.2 0 0 0-90.2-6.3c-90.7 1.5-121.2-20.6-177.3-33.8-10.2-1.8-25.5 0-35.7 1.8-48.4 11.4-76.4 30.5-155.1 30.1l-29.9.6a484.7 484.7 0 0 0-159 25.6c-48.4 15.5-94.3-4.2-127.4-13.8-22.9-6-56-13.8-91.9-9.5-9.1-.6-18.1-.8-27-.9-13.4-.1-26.6.2-39.6.6-81 2.1-114.1-18.2-160-30.2-15.3-3.6-35.7-3-48.4.6-43.3 12.6-84.1 29.9-163 27.5C8.5 63.3 0 65.1 0 65.1v7.3s9.1-1.8 22.5-1.2c82.8 6.4 108.3-19.3 161.8-28.9C248 31.5 270.9 60.8 324.4 68c20.4 3 35.7 7.2 60.6 7.2 13-.2 26.2-.9 39.6-1.4 8.9-.4 17.9-.6 27-.6 63.8 2 107.2 13.4 142.8 26 12.7 3.6 30.6 8.4 48.4 6C704 96.8 732 79.4 800 73.4c10-1.5 19.9-2.3 29.9-2.6 10-.3 19.9-.2 29.9 0 35.3 2.1 65.9-3.3 88.8-9.2C981.7 54.3 997 34 1047.9 40c58.6 7.2 71.3 27.5 140.7 32.3 13.3.7 26.3.8 39.2.7l25.4-.2c72.4 2.5 108.1 18.6 151.4 30.6a131 131 0 0 0 61.1-.6c35.7-10.8 61.1-22.7 111.9-29.3a97.2 97.2 0 0 1 24.4-.9m0 29.1v-7.4c-61.1 2.4-95.7 16.5-128.8 27.9-17.8 5.4-45.8 9-68.8 2.4-40.7-12-76.4-30.6-151.4-29.6l-25.4-.3c-80.5 2.3-116.1-17.5-162-30.2-15.3-4.2-35.7-6-50.9-1.8-48.4 12.6-76.4 31.8-155 34.3l-29.9-.6c-10-.3-20-.7-30-.8-65.3 5-85.7 23.6-146.8 29-53.5 4.8-86.6-14.4-124.8-22.8a465.4 465.4 0 0 0-76.6-8.3c-9.1 0-18.1-.1-27-.3-13.4-.3-26.6-.7-39.6-.8C311.7 92.2 281.1 73 237.8 61a108.8 108.8 0 0 0-48.4-1.2C141 73 110.4 96.4 22.3 94.6L0 94.3v7.4c0 .2 9.1.4 22.3.6 83 1.3 113.6-19.7 159.4-32.9a114 114 0 0 1 40.8-1.8C273.4 79 304 101.2 385 98.1c13-.2 26.2.2 39.6 1 8.9.5 17.9 1.2 27 1.9 76.6 2.6 109.7 21.2 170.8 32 17.8 3 33.1.6 45.9-2.4 43.3-9.6 66.2-25.8 131.5-28.9 10-.6 20-.5 30-.2l29.9 1.1c86.3-.2 111.7-24.8 178-34.4a89.2 89.2 0 0 1 28 3c43.3 9.6 66.2 23.4 122.8 28.9 13.3.8 26.3 1.3 39.2 1.6l25.4.7c75 1.3 100.4 21.1 153.9 30.1 66.2 11.4 89.2-18.6 145.2-25.8 7.6-1.2 15.3-2.4 25.2-3.1 13.2-1.2 24.6-1.9 24.6-1.9zm0 29c.3-2.2 0-4.9 0-7.3-20.4.6-42.2 2.3-57.5 5.3-45.8 8.3-61.1 27.3-112.1 26.8-73.9-1.2-86.6-32.7-179.4-31.7-8.4.3-16.9.5-25.4.6-80.5 1.4-116.1-17.6-162-30.1a131 131 0 0 0-66.2-.6c-38.2 12.5-73.9 26.8-139.8 29.5-9.9.1-19.9 0-29.9 0l-30 .1c-80.6-.5-93.3 23.3-154.4 32.2-15.3 1.8-28 0-38.2-2.4-43.3-11.9-81.5-29.1-155.5-29.8-9.1 1-18.1 1.7-27 2.1a403 403 0 0 1-39.6.2c-60.6-5.7-96.2-18.2-134.4-30.1-15.3-4.2-40.8-9.5-63.7-4.8-48.4 10.7-73.9 27.3-140.2 32.2l-24.3.9c-13.3.3-22.4.4-22.4-.4v7.3c0 1.2 9.1 1.2 22.3.8 6.6-.2 14.8-.5 24.4-1 66.3-5.4 91.8-21.4 140.2-32.1a72.8 72.8 0 0 1 25.5-.6c63.7 9.5 91.7 29.1 172.7 32.2a1039.3 1039.3 0 0 0 66.6-.6c86.8-.1 109.7 24.9 173.4 32 48.4 5.4 73.9-17.8 119.7-26.2 17.8-2.4 35.7-6.5 55.1-5 10-.3 20-.5 30-.5l29.9-.1c83.7-.3 101.5-22.3 162.7-32.4 12.7-1.8 25.5 0 35.7 2.4 48.4 13.1 84.1 35.1 169.6 32.5l25.4-.8c75 1 103 19.5 153.9 29.6 61.1 11.3 86.6-19 137.5-26.2 10.2-1.8 20.4-3 32.9-3.7 13.1-.6 24.5-.3 24.5-.3zm0 31.6V155a741 741 0 0 0-139 30c-7.6 2.4-22.9 6-40.8 3.6-63.7-10.1-84.1-32.1-169.2-32.7-8.4-.2-16.9-.2-25.4-.3a434 434 0 0 1-80.5-6.3c-40.8-9.5-63.7-26.8-112.1-26.8-45.9-.6-71.3 14.9-107 23.2a281.3 281.3 0 0 1-68.4 6.1c-9.9-.2-19.9-.2-29.9.1-10 .3-19.9.9-30 2.2-70.4 7.1-103.5 22.6-159.5 34.5-15.3 3.6-30.6-2.4-38.2-5.4-35.7-14.3-86.6-23.8-150.4-28.1-9.1-1.3-18.1-1.7-27-1.5-13.4.2-26.6 1.5-39.6 2.2-63.2-2.8-98.8-18.3-142.1-28.4a116.4 116.4 0 0 0-45.8-4.8c-58.6 8.9-84.1 25.6-150.4 31.1l-24.3 1.4c-13.3.6-22.4 1-22.4-.1v7.3c0 .6 9.1 1.1 22.3 1.4 6.6.1 14.8.2 24.4.1 61.2-1.4 89.2-15.7 117.2-27a136.3 136.3 0 0 1 66.2-6.5c58.6 9.5 81.5 29.8 154.9 31.4l39.6.3c8.9.1 17.9.3 27.1.7 63.8-1.4 107.1 11.1 135.1 23.6a95.8 95.8 0 0 0 53.5 7.7c68.8-11.3 91.7-35.7 189.5-32.4 10-.1 19.9-.1 29.9 0 76.1-.9 104.1-20.6 152.5-31.9 12.7-3 33.1-4.2 48.4-1.2 45.8 10.1 66.2 25.6 127.6 31.6 13.6.8 26.7 1.2 39.5 1.4l25.4.5c26.6-.2 46.9 2.7 64.8 6.3 40.8 8.9 53.5 25.6 104.4 26.8 61.1 2.4 73.9-17.3 122.3-25.6 10.2-1.8 20.4-4.2 32.9-4.9l24.5-2.3zm0 30.2v-7.3s-41.2 1.1-56.5 4c-48.4 8.9-68.8 33.9-127.4 28-63.7-6.5-79-34.5-164.2-31.4l-25.6-.3c-24.3.1-49.7-1.6-70.1-5.8-51-8.9-68.8-30.9-127.4-27.4-71.4 4.2-81.6 33.3-170.4 31.2-10 0-19.9.1-30.5.4-76.9.6-120.2 16.1-163.6 30.4a94 94 0 0 1-40.8 4.8c-33.1-3.6-43.3-12.5-63.7-19.6a327.3 327.3 0 0 0-109.5-14c-9.3.5-18.3.7-27.2.7-13.4.1-26.6-.3-39.6-.7-76-2.1-101.4-20.5-162.6-30.7a118.7 118.7 0 0 0-35.7.6c-51 9.5-66.3 29.2-140 30.1-9.8 0-18-.2-24.6-.4-13.5-.4-22.6.1-22.6.1v7.3c19.3 4.5 62.1 1.5 85-2.1 48.4-7.7 63.7-20.2 104.5-29.2 7.6-1.2 15.3-3.6 25.5-2.4 68.8 8.9 89.2 31.5 170.3 35.1 13 0 26.2-.8 39.6-1.3 8.9-.4 17.9-.6 27.3-.5 84-2.3 109.5 20.4 163 31.7 20.4 4.2 40.8.6 53.5-3.6 33.1-11.3 51-30.9 124.9-28 12.7.6 22.9-3 35.4-3.8a448 448 0 0 1 31.2-2.2c20.1-.6 40.4 0 55.7-1.8 61.2-4.8 71.4-30.9 132.5-26.2 79 5.4 104.5 36.3 205.4 33.3 12.5.3 23.8 1 34.1 2.1 51.5 5.4 79.2 19.5 117.4 29.4 20.4 6 45.9 3 61.2-1.8 33.1-10.1 61.2-22 111.9-27.1 13.3-.7 23.6-1.6 23.6-1.6zm0 27.9V213c-66.2 2.4-97.3 17.3-135.5 28.7-30.6 9.6-68.8 3.6-89.2-4.8a372.7 372.7 0 0 0-123.4-25.4c-88.1 2.1-126.3-18.8-179.8-32a134.2 134.2 0 0 0-53.5-.6c-32.3 9.2-56.6 20.5-93.3 27.5a400 400 0 0 1-66.9 6.5c-36 2.5-79.3-1-109.9 5.5-43.3 9-61.1 30.5-124.8 25.7-68.8-4.8-86.6-34.1-173.3-31.4-9.2-.4-18.2-.6-27.1-.8l-39.6-.3c-63.2.2-98.9-13.5-132-24.9-15.3-4.2-38.2-10.2-61.1-5.4C134 193.2 89.2 211.8 0 213v7.5c96.8 1.8 134-23 205.4-32 58.6-7.2 81.5 20.9 140.1 28.1 12.7 1.2 28 1.8 40.3 2.3 13 .3 26.2.6 39.6.6 8.9 0 17.9-.2 27.1-.6 17.9 1.3 35.8 2.5 51.1 4.3 61.1 6.6 96.8 37.1 142.7 27.5 66.2-13.2 117.2-32.3 214.4-32.1a477 477 0 0 0 37-.9c56.1-3.7 86.2-17.8 118.1-29.8 15.3-6 43.3-6 61.1-.6 45.9 15.6 91.7 32.9 177.2 33.4 12.6.2 23.8.8 34.2 1.7 51.6 4.8 79.5 18.6 119.9 27.1 61.1 13.2 91.7-15.6 140.1-22.1 10.2-1.2 17.8-3.6 30.3-4.2 13-1.4 23.4-2.8 23.4-2.8zm0 29.2v-7.2c-61.1 2.4-93.2 16.1-128.8 27.5-12.7 3.6-30.6 9-51 6-55.7-8.9-76.4-27.4-139.4-32.4a502 502 0 0 0-30-1.4c-87.9-.9-123.6-21.8-187.3-33.2-20.4-3.6-43.3.6-51 4.2a234 234 0 0 1-85 27.3c-19.9 2.5-43 3.1-70.1.7-104.8-7-155.7 20.5-214.3 35.4a71 71 0 0 1-30.6-1.2c-48.4-13.8-81.5-29.9-163.2-32.6h-27a5103 5103 0 0 1-39.8-.7c-83.3 1-103.7-21.7-159.7-32.5a88.4 88.4 0 0 0-17.8-.6c-71.4 12.6-110.2 32.9-207 32.9v7.8c84.1 4.2 128-15 176.4-27.5 10.2-2.4 25.5-4.8 40.8-2.4 58.6 10.2 84.1 31.1 167.2 29l40.1.1 27 .3c71.5 4.6 112.3 19 160.7 30.9 12.7 3 30.6 3.6 45.9.6 53.5-11.4 86.6-34.1 171.3-31.3l30.4 1c10 .3 19.9.5 29.8.2 84.5-1.7 97.2-22.6 148.2-35.2a59.1 59.1 0 0 1 17.8-.6c71.3 12 109.6 31.1 197.4 34.5 12.7.3 23.8 1 33.9 2 50.5 5.1 75.6 20.2 120.2 28.7 61.1 12 89.2-16.1 137.6-23.9 12.7-1.8 20.4-4.2 32.9-4.8 13-1 24.4-1.6 24.4-1.6zm0 31.1c.3-2.7 0-5.1 0-7.5-20.4.6-39.7 3.6-57.5 6.6-43.3 8.4-58.6 22.9-112.1 27.8-20.4 1.2-35.7-3.6-48.4-7.2-23.8-7.2-46.4-15.8-77.3-21.5-7.7-1.4-16-2.6-24.9-3.6-91.4-5-139.8-23.8-211.1-37a87.5 87.5 0 0 0-50.9 6.6c-20.4 8.4-22.9 18.7-56 25.3-22.9 4.8-50.9 2.4-74.3-.3-9.9-.5-19.9-.6-29.8-.4-9.9.2-19.9.7-29.9 1.2-82.5 1.9-118.2 20.6-169.1 33.2-12.7 3-33.1 5.4-48.4 2.4-53.5-11.5-81.5-32.6-160.6-33.2a749 749 0 0 1-66.7 1.1c-75.8-2.3-111.4-17.9-152.2-32.4a98.9 98.9 0 0 0-45.9 0A704 704 0 0 1 0 273.1v7.4l22.8.4c39.3.7 69.8-5.3 95.3-11.4 33.1-7.8 56-25.9 99.3-21.7 63.7 6 84.1 33.2 167.6 33.3 13-.8 26.2-2.2 39.6-2.2 8.9 0 17.9.6 27 2.3 91.9-2.6 107.1 27.6 178.5 35.4a82.3 82.3 0 0 0 28-2.4c45.9-12.1 79-27.2 141.8-33.7 7.5-.1 14.9 0 22.4.2 22.4.6 44.8 1.9 67.2 2 9.9.1 19.8-.1 29.7-.6 72.6-3.5 85.4-22.8 118.5-36.7 7.6-3 25.5-3 35.7-1.2 61.1 13.3 109.5 27.2 179.6 36.5a752 752 0 0 1 32.4 2.9c49.7 5.7 80.9 18.6 119.1 28.1 15.3 3.6 35.7 3.6 50.9 0 40.8-10.3 66.2-24.7 122-30.1 13.2-.9 24.6-1 24.6-.9" opacity=".1"/></svg>
